<?xml version="1.0" encoding="utf-8" ?>
<svg baseProfile="full" height="200mm" version="1.1" viewBox="0,0,200,200" width="200mm" xmlns="http://www.w3.org/2000/svg" xmlns:ev="http://www.w3.org/2001/xml-events" xmlns:xlink="http://www.w3.org/1999/xlink"><defs /><rect fill="#1a1a1a" height="200" width="200" x="0" y="0" /><text alignment-baseline="middle" fill="#e1ed5e" style="dominant-baseline: central; font-size:9.0px; font-family:Arial;" text-anchor="middle" x="100.0" y="100.0">2025</text><line stroke="#e1ed5e" stroke-width="0.3" x1="100.0" x2="100.0" y1="15.0" y2="10.0" /><path d="M 100.0 14.0 a86.0,86.0 0 0,1 42.46469731375804,11.215312516191453" fill="none" id="id25" stroke="none" /><text fill="#e1ed5e" style="font-size:6.75px; font-family:Arial;" text-anchor="middle"><textPath startOffset="22.20632615414155" xlink:href="#id25">January</textPath></text><path d="M 100.36148047927253 79.00311137660856 l 0.3123536466906587 -18.14331646309828 a39.14600498954891,39.14600498954891 0 0,0 0.6736344543691326,0.017397990541127933 l -0.6246147362546591 18.135251680414793" fill="#ffd714" stroke="none" /><path d="M 102.52436894288641 79.15227682838746 l 2.3639470071659265 -19.522864491196874 a40.66546423032837,40.66546423032837 0 0,0 0.6941890469030352,0.09012566164706197 l -2.699650782576808 19.479280506385674" fill="#ffea16" stroke="none" /><path d="M 102.88285421437855 79.19881850522331 l 1.220468541979612 -8.806268289170475 a29.890438945452093,29.890438945452093 0 0,0 0.5090356264522403,0.07501861920357694 l -1.371873148860508 8.78395518580593" fill="#ff5908" stroke="none" /><path d="M 103.95276090670814 79.375362276772 l 9.871552399473636 -51.50759097507932 a73.44501382239903,73.44501382239903 0 0,0 1.2395895217052142,0.2486499966013011 l -10.756708330645974 51.33003702240081" fill="#3fffc2" stroke="none" /><path d="M 105.01212808612495 79.60689891045804 l 4.9856891752442865 -20.28552774484245 a41.88922527139101,41.88922527139101 0 0,0 0.6987344415447091,0.17812296712107434 l -5.33413250547402 20.19670178155251" fill="#fffa17" stroke="none" /><path d="M 106.0581310904928 79.89281104454417 l 7.90611092521704 -26.24071085645682 a48.40586609129525,48.40586609129525 0 0,0 0.7957339533962559,0.2472384127546238 l -8.356630251324015 26.100732308819673" fill="#b5ff1f" stroke="none" /><path d="M 106.40334571778207 80.00007090966166 l 17.690838236732194 -55.25478802444565 a79.01773312655924,79.01773312655924 0 0,0 1.2918164347529597,0.42589156809870565 l -18.63933749372757 54.94208273208771" fill="#47fffc" stroke="none" /><line stroke="#e1ed5e" stroke-width="0.3" x1="143.23703022742887" x2="145.7803849466894" y1="26.81831364943548" y2="22.513508569990506" /><path d="M 143.74570117128098 25.957352633546492 a86.0,86.0 0 0,1 28.547481713284135,27.462654790039103" fill="none" id="id26" stroke="none" /><text fill="#e1ed5e" style="font-size:6.75px; font-family:Arial;" text-anchor="middle"><textPath startOffset="19.985693538727396" xlink:href="#id26">February</textPath></text><path d="M 113.06298171725822 83.55741782278167 l 6.820918125319894 -8.5855977775333 a31.9652821792192,31.9652821792192 0 0,0 0.42787296116693113,0.34597684469371903 l -6.967694485051316 8.466914835575452" fill="#ff760a" stroke="none" /><path d="M 113.6212207817346 84.01681056812373 l 8.877779812675376 -10.41721874670383 a34.68697997437799,34.68697997437799 0 0,0 0.45110615891514927,0.3911948157373116 l -9.05577977023729 10.262858937546847" fill="#ff9c0e" stroke="none" /><path d="M 113.89432698308785 84.25364557470407 l 11.538196633264292 -13.076166541731892 a38.43892522419257,38.43892522419257 0 0,0 0.49236421590129276,0.4420494544516839 l -11.761571836761574 12.87561807851091" fill="#ffcd13" stroke="none" /><path d="M 114.94478906791727 85.2469230424477 l 36.1673770632922 -35.70342108829257 a71.82138763400985,71.82138763400985 0 0,0 0.8609528522815185,0.8872875941684009 l -36.77659417927683 35.07556929857406" fill="#3dffb1" stroke="none" /><path d="M 117.2510076193507 88.02491185347247 l 6.102195478325824 -4.235945537368204 a28.428325804059064,28.428325804059064 0 0,0 0.2755862674145076,0.40438884187149693 l -6.174206211409065 4.130278672226301" fill="#ff4406" stroke="none" /><path d="M 117.65298651832404 88.62581576622439 l 24.395464831626064 -15.718502428780655 a50.0208549659497,50.0208549659497 0 0,0 0.460126132933568,0.7278090427710696 l -24.662418560805587 15.29624573829538" fill="#a3ff22" stroke="none" /><line stroke="#e1ed5e" stroke-width="0.3" x1="172.23445277983987" x2="176.4835382374775" y1="55.19839476539836" y2="52.563006222186495" /><path d="M 173.08426987136738 54.67131705675599 a86.0,86.0 0 0,1 12.851231095245387,41.99856678651699" fill="none" id="id27" stroke="none" /><text fill="#e1ed5e" style="font-size:6.75px; font-family:Arial;" text-anchor="middle"><textPath startOffset="22.20632615414155" xlink:href="#id27">March</textPath></text><path d="M 117.84615892207809 88.93136811851018 l 42.87642663550179 -26.593026818502167 a71.45371181983683,71.45371181983683 0 0,0 0.6392868383217261,1.0508194730447473 l -43.32782927210973 25.85103957225034" fill="#3dffac" stroke="none" /><path d="M 118.03404312379186 89.2402003453031 l 42.695525150717266 -25.47378275744066 a70.71741622277662,70.71741622277662 0 0,0 0.6147038179963334,1.0507280841259494 l -43.12768864318393 24.735075260960816" fill="#3cffa4" stroke="none" /><path d="M 118.56541770881063 90.18545643968196 l 2.4927472949100924 -1.3177821956114448 a23.81963454925494,23.81963454925494 0 0,0 0.18850469369807404,0.36413106838575005 l -2.5150614217682827 1.27467840496535" fill="#ff0000" stroke="none" /><path d="M 118.73160827565052 90.50648371742162 l 5.994889290494079 -3.038317813080782 a27.720868451217044,27.720868451217044 0 0,0 0.21205142613922778,0.42748273554326693 l -6.046300729586715 2.934675489038565" fill="#ff3a05" stroke="none" /><path d="M 118.89224826269711 90.83032412892265 l 5.732130534509522 -2.782187610563072 a27.371647225406242,27.371647225406242 0 0,0 0.2020833153977746,0.4256389998984747 l -5.779172043749052 2.683106195024057" fill="#ff3505" stroke="none" /><path d="M 119.04729006885535 91.15688171328212 l 44.23562201031381 -20.537348699454867 a69.77061560245431,69.77061560245431 0 0,0 0.4963603959546489,1.0936643374223116 l -44.58258472323181 19.77286235319049" fill="#3bff9a" stroke="none" /><path d="M 119.47837535516314 92.15188598940014 l 20.742086013024227 -8.357280978504857 a43.36243004517564,43.36243004517564 0 0,0 0.2729901402274175,0.6947301304207754 l -20.882869703133345 7.999001843188298" fill="#f2ff19" stroke="none" /><path d="M 120.18372546131832 94.20196356495316 l 19.359192626973762 -5.561178704070262 a41.142121232553436,41.142121232553436 0 0,0 0.18967150582255715,0.6823493227935953 l -19.452050903362682 5.227118077857715" fill="#fff016" stroke="none" /><path d="M 120.28053869075195 94.5502522615342 l 17.391132834534645 -4.673312098834065 a39.008091160407254,39.008091160407254 0 0,0 0.1686703697191714,0.6499557395020376 l -17.46899953612412 4.373259933783176" fill="#ffd513" stroke="none" /><path d="M 120.45610955862082 95.25157060432595 l 21.05802758244809 -4.888151234273754 a42.61792192030207,42.61792192030207 0 0,0 0.15972712711603207,0.7160253915189377 l -21.139049096566158 4.524947673204852" fill="#fbff18" stroke="none" /><path d="M 120.6074358757038 95.95851677861258 l 49.62032308694964 -9.731424346304381 a71.56557211246712,71.56557211246712 0 0,0 0.22667296295416728,1.210896031928258 l -49.78048177381366 8.87585023691356" fill="#3dffae" stroke="none" /><path d="M 120.67395015179393 96.31383870115 l 59.81817176457881 -10.665568413756594 a81.76156698806554,81.76156698806554 0 0,0 0.23511565855232683,1.387665925910152 l -59.99289928465136 9.634316699530604" fill="#4ae7ff" stroke="none" /><path d="M 120.78858239683441 97.02765380044208 l 22.138464252467756 -3.165351962377744 a43.36361000606837,43.36361000606837 0 0,0 0.09929027925654359,0.7398279089064517 l -22.189670530782134 2.783805711406628" fill="#f2ff19" stroke="none" /><path d="M 120.83666639777658 97.38593545837742 l 33.95735501845548 -4.260120884332341 a55.22353853415144,55.22353853415144 0 0,0 0.11020947646947579,0.9442074905974218 l -34.02565484792855 3.674969655410067" fill="#69ff28" stroke="none" /><path d="M 120.94382443527127 98.46500227214037 l 41.54981184455656 -3.0452349794806484 a62.6612568269166,62.6612568269166 0 0,0 0.06958207029162995,1.0764038296582275 l -41.5960745058526 2.3295720855693856" fill="#32ff46" stroke="none" /><line stroke="#e1ed5e" stroke-width="0.3" x1="184.98032266829074" x2="189.97916517819016" y1="98.17113171792111" y2="98.06355123074" /><path d="M 185.9800911702706 98.14961562048488 a86.0,86.0 0 0,1 -9.607161424134198,41.387399972396054" fill="none" id="id28" stroke="none" /><text fill="#e1ed5e" style="font-size:6.75px; font-family:Arial;" text-anchor="middle"><textPath startOffset="21.466115282336823" xlink:href="#id28">April</textPath></text><path d="M 120.9904718944345 100.63252640178507 l 62.97141568330351 1.8975792053552112 a84.0,84.0 0 0,0 -0.05599146859518722,1.4448910119439753 l -62.92942208185712 -2.9812474643131925" fill="#4dd2ff" stroke="none" /><path d="M 120.9764740272857 100.99374915477107 l 50.642817680600906 2.399176200912462 a71.69961566988066,71.69961566988066 0 0,0 -0.06901480345952254,1.232305677292372 l -50.59401652625385 -3.2705535945402575" fill="#3dffaf" stroke="none" /><path d="M 120.8583938346157 102.4346265915055 l 29.025528811151123 3.3879082366765454 a50.22258108016992,50.22258108016992 0 0,0 -0.10761620715883077,0.8578070555866065 l -28.962911094745447 -3.8870330465505467" fill="#a1ff22" stroke="none" /><path d="M 120.49622156327973 104.57218783832717 l 26.538352713534593 5.920034243943033 a48.19064122446227,48.19064122446227 0 0,0 -0.18757503529196745,0.8080683427430236 l -26.432517112312073 -6.375971244034622" fill="#b8ff1f" stroke="none" /><path d="M 120.32669344350535 105.2749913415812 l 29.911574805804484 7.7623691503101355 a51.9023734070528,51.9023734070528 0 0,0 -0.2318600710353814,0.8628375783862116 l -29.773526658427325 -8.276097661871894" fill="#8eff24" stroke="none" /><path d="M 120.23288151984713 105.62410040840565 l 26.00498024143415 7.228561085229739 a47.990944642977546,47.990944642977546 0 0,0 -0.22808807800765535,0.7940045218893322 l -25.876699526540396 -7.675123082623653" fill="#baff1f" stroke="none" /><path d="M 120.02730092923936 106.31721596034902 l 39.72871315974477 12.531636776399099 a62.658283325466925,62.658283325466925 0 0,0 -0.3333055135940065,1.0258088920380237 l -39.50711539513452 -13.213644568414917" fill="#32ff46" stroke="none" /><line stroke="#e1ed5e" stroke-width="0.3" x1="174.80103733775053" x2="179.2010983576182" y1="140.37084112569926" y2="142.7455964860345" /><path d="M 175.68104954172406 140.8457921977663 a86.0,86.0 0 0,1 -30.038265399797805,32.042727171017184" fill="none" id="id29" stroke="none" /><text fill="#e1ed5e" style="font-size:6.75px; font-family:Arial;" text-anchor="middle"><textPath startOffset="22.206326154141568" xlink:href="#id29">May</textPath></text><line stroke="#e1ed5e" stroke-width="0.3" x1="143.8653032363475" x2="146.44561519142675" y1="172.8068346515853" y2="177.08958963109032" /><path d="M 144.38136562736335 173.6633856474863 a86.0,86.0 0 0,1 -40.68145358897372,12.25698825130547" fill="none" id="id30" stroke="none" /><text fill="#e1ed5e" style="font-size:6.75px; font-family:Arial;" text-anchor="middle"><textPath startOffset="21.466115282336833" xlink:href="#id30">June</textPath></text><line stroke="#e1ed5e" stroke-width="0.3" x1="102.19456741930631" x2="102.32365962044197" y1="184.97166512339345" y2="189.96999836594603" /><path d="M 102.22038585953345 185.97133177190398 a86.0,86.0 0 0,1 -42.740103519485714,-10.115201625700543" fill="none" id="id31" stroke="none" /><text fill="#e1ed5e" style="font-size:6.75px; font-family:Arial;" text-anchor="middle"><textPath startOffset="22.20632615414155" xlink:href="#id31">July</textPath></text><line stroke="#e1ed5e" stroke-width="0.3" x1="58.666819895761336" x2="56.23545636021788" y1="174.27360380694188" y2="178.64263932499728" /><path d="M 58.180547188652646 175.14741091055294 a86.0,86.0 0 0,1 -31.652253787137756,-30.449443065178592" fill="none" id="id32" stroke="none" /><text fill="#e1ed5e" style="font-size:6.75px; font-family:Arial;" text-anchor="middle"><textPath startOffset="22.20632615414155" xlink:href="#id32">August</textPath></text><line stroke="#e1ed5e" stroke-width="0.3" x1="26.63291911575756" x2="22.317208475507996" y1="142.92168965132927" y2="145.44649492493687" /><path d="M 25.769776987707644 143.4266507060508 a86.0,86.0 0 0,1 -11.730757126820373,-40.83630448921669" fill="none" id="id33" stroke="none" /><text fill="#e1ed5e" style="font-size:6.75px; font-family:Arial;" text-anchor="middle"><textPath startOffset="21.46611528233685" xlink:href="#id33">September</textPath></text><line stroke="#e1ed5e" stroke-width="0.3" x1="15.007084014347285" x2="10.007500721073583" y1="101.09737516637583" y2="101.16192664675087" /><path d="M 14.007167355692545 101.11028546245083 a86.0,86.0 0 0,1 10.666146001902534,-42.60595125391555" fill="none" id="id34" stroke="none" /><text fill="#e1ed5e" style="font-size:6.75px; font-family:Arial;" text-anchor="middle"><textPath startOffset="22.20632615414155" xlink:href="#id34">October</textPath></text><line stroke="#e1ed5e" stroke-width="0.3" x1="26.266209847984243" x2="21.928928074336255" y1="57.711370442889674" y2="55.22380399835377" /><path d="M 25.398753493254645 57.213857153982495 a86.0,86.0 0 0,1 29.58750427330803,-30.492523968695096" fill="none" id="id35" stroke="none" /><text fill="#e1ed5e" style="font-size:6.75px; font-family:Arial;" text-anchor="middle"><textPath startOffset="21.46611528233685" xlink:href="#id35">November</textPath></text><line stroke="#e1ed5e" stroke-width="0.3" x1="56.762969772571076" x2="54.21961505331055" y1="26.818313649435495" y2="22.513508569990535" /><path d="M 56.25429882871897 25.957352633546506 a86.0,86.0 0 0,1 42.265352541879196,-11.944610805530505" fill="none" id="id36" stroke="none" /><text fill="#e1ed5e" style="font-size:6.75px; font-family:Arial;" text-anchor="middle"><textPath startOffset="22.20632615414155" xlink:href="#id36">December</textPath></text></svg>