<?xml version="1.0" encoding="utf-8" ?>
<svg baseProfile="full" height="200mm" version="1.1" viewBox="0,0,200,200" width="200mm" xmlns="http://www.w3.org/2000/svg" xmlns:ev="http://www.w3.org/2001/xml-events" xmlns:xlink="http://www.w3.org/1999/xlink"><defs /><rect fill="#1a1a1a" height="200" width="200" x="0" y="0" /><text alignment-baseline="middle" fill="#e1ed5e" style="dominant-baseline: central; font-size:9.0px; font-family:Arial;" text-anchor="middle" x="100.0" y="100.0">2023</text><line stroke="#e1ed5e" stroke-width="0.3" x1="100.0" x2="100.0" y1="15.0" y2="10.0" /><path d="M 100.0 14.0 a86.0,86.0 0 0,1 42.46469731375804,11.215312516191453" fill="none" id="id1" stroke="none" /><text fill="#e1ed5e" style="font-size:6.75px; font-family:Arial;" text-anchor="middle"><textPath startOffset="22.20632615414155" xlink:href="#id1">January</textPath></text><line stroke="#e1ed5e" stroke-width="0.3" x1="143.23703022742887" x2="145.7803849466894" y1="26.81831364943548" y2="22.513508569990506" /><path d="M 143.74570117128098 25.957352633546492 a86.0,86.0 0 0,1 28.547481713284135,27.462654790039103" fill="none" id="id2" stroke="none" /><text fill="#e1ed5e" style="font-size:6.75px; font-family:Arial;" text-anchor="middle"><textPath startOffset="19.985693538727396" xlink:href="#id2">February</textPath></text><line stroke="#e1ed5e" stroke-width="0.3" x1="172.23445277983987" x2="176.4835382374775" y1="55.19839476539836" y2="52.563006222186495" /><path d="M 173.08426987136738 54.67131705675599 a86.0,86.0 0 0,1 12.851231095245387,41.99856678651699" fill="none" id="id3" stroke="none" /><text fill="#e1ed5e" style="font-size:6.75px; font-family:Arial;" text-anchor="middle"><textPath startOffset="22.20632615414155" xlink:href="#id3">March</textPath></text><line stroke="#e1ed5e" stroke-width="0.3" x1="184.98032266829074" x2="189.97916517819016" y1="98.17113171792111" y2="98.06355123074" /><path d="M 185.9800911702706 98.14961562048488 a86.0,86.0 0 0,1 -9.607161424134198,41.387399972396054" fill="none" id="id4" stroke="none" /><text fill="#e1ed5e" style="font-size:6.75px; font-family:Arial;" text-anchor="middle"><textPath startOffset="21.466115282336823" xlink:href="#id4">April</textPath></text><path d="M 120.99980553446 99.90962569577887 l 11.130144620286746 -0.04789944717765857 a32.13024768931662,32.13024768931662 0 0,0 -0.002380243496152829,0.5530847620312342 l -11.12932007950109 -0.14369479305726032" fill="#ff0701" stroke="none" /><path d="M 120.5718875245553 104.21870165774334 l 10.49334061888576 2.15188195110044 a31.71171290109241,31.71171290109241 0 0,0 -0.11426177335026844,0.5337929653894359 l -10.454744806811048 -2.332188735906045" fill="#ff0000" stroke="none" /><path d="M 120.49622156327973 104.57218783832717 l 50.64594979042803 11.297828479136985 a72.89078105519857,72.89078105519857 0 0,0 -0.2837167234443768,1.2222442190418505 l -50.443972501053096 -12.1679413555274" fill="#3dffaa" stroke="none" /><path d="M 120.41448212921028 104.9243191809786 l 36.20978979310306 8.734415170995 a58.24834070452023,58.24834070452023 0 0,0 -0.24350215594968286,0.972670070779558 l -36.05407632285832 -9.356413081171954" fill="#72ff27" stroke="none" /><path d="M 119.79798401119884 107.00284435728193 l 26.019755962751653 9.2035785622687 a48.59952098702081,48.59952098702081 0 0,0 -0.2857553223173518,0.7862759199898612 l -25.857476379429073 -9.650102279264692" fill="#f3ff19" stroke="none" /><path d="M 119.26925614724726 108.34839909993367 l 12.22824656108963 5.297883935127995 a34.32657450918606,34.32657450918606 0 0,0 -0.2395650249979737,0.5401558880508683 l -12.135240451360383 -5.507588159671552" fill="#ff2d04" stroke="none" /><path d="M 119.12269723197855 108.67885076344098 l 21.673236493824454 9.836414958037988 a44.80092937983636,44.80092937983636 0 0,0 -0.3247542209893927,0.6994917005193623 l -21.50070765599523 -10.20802672583618" fill="#ffd313" stroke="none" /><line stroke="#e1ed5e" stroke-width="0.3" x1="174.80103733775053" x2="179.2010983576182" y1="140.37084112569926" y2="142.7455964860345" /><path d="M 175.68104954172406 140.8457921977663 a86.0,86.0 0 0,1 -30.038265399797805,32.042727171017184" fill="none" id="id5" stroke="none" /><text fill="#e1ed5e" style="font-size:6.75px; font-family:Arial;" text-anchor="middle"><textPath startOffset="22.206326154141568" xlink:href="#id5">May</textPath></text><line stroke="#e1ed5e" stroke-width="0.3" x1="143.8653032363475" x2="146.44561519142675" y1="172.8068346515853" y2="177.08958963109032" /><path d="M 144.38136562736335 173.6633856474863 a86.0,86.0 0 0,1 -40.68145358897372,12.25698825130547" fill="none" id="id6" stroke="none" /><text fill="#e1ed5e" style="font-size:6.75px; font-family:Arial;" text-anchor="middle"><textPath startOffset="21.466115282336833" xlink:href="#id6">June</textPath></text><line stroke="#e1ed5e" stroke-width="0.3" x1="102.19456741930631" x2="102.32365962044197" y1="184.97166512339345" y2="189.96999836594603" /><path d="M 102.22038585953345 185.97133177190398 a86.0,86.0 0 0,1 -42.740103519485714,-10.115201625700543" fill="none" id="id7" stroke="none" /><text fill="#e1ed5e" style="font-size:6.75px; font-family:Arial;" text-anchor="middle"><textPath startOffset="22.20632615414155" xlink:href="#id7">July</textPath></text><path d="M 96.93821686468263 120.77559828337769 l -3.4916868491749895 23.692691514643542 a44.94860138423043,44.94860138423043 0 0,0 -0.7644775426382702,-0.11939566988536181 l 3.8990002554217766 -23.629077537411074" fill="#ffd513" stroke="none" /><path d="M 96.22490169976321 120.6578951692458 l -3.6873246705255105 20.17758491054706 a41.5117355688933,41.5117355688933 0 0,0 -0.7018100239187239,-0.13450356140595462 l 4.034102309015929 -20.111124150792637" fill="#ffa10e" stroke="none" /><path d="M 94.81253420990036 120.34920634021253 l -4.049125683297101 15.88376624750408 a37.39174941867054,37.39174941867054 0 0,0 -0.6223225610392045,-0.1643610445721935 l 4.321938687147794 -15.811713853628305" fill="#ff6008" stroke="none" /><path d="M 92.7421414339146 119.70592522655815 l -8.253012877366336 22.407884250480848 a44.87939484444533,44.87939484444533 0 0,0 -0.7226218986268759,-0.2732337697627466 l 8.637504996753494 -22.262502230611467" fill="#ffd413" stroke="none" /><path d="M 92.40401165467489 119.57807347666478 l -8.566776963198112 22.08020618500741 a44.6838589066398,44.6838589066398 0 0,0 -0.7146841165647434,-0.28438755938030935 l 8.945582155804713 -21.929471781221032" fill="#ffd113" stroke="none" /><path d="M 90.10565033884886 118.52300852407294 l -11.151888019581165 20.877220223706566 a44.669028933828706,44.669028933828706 0 0,0 -0.6750919428369948,-0.3681139539910742 l 11.5096027742868 -20.68216561795573" fill="#ffd113" stroke="none" /><line stroke="#e1ed5e" stroke-width="0.3" x1="58.666819895761336" x2="56.23545636021788" y1="174.27360380694188" y2="178.64263932499728" /><path d="M 58.180547188652646 175.14741091055294 a86.0,86.0 0 0,1 -31.652253787137756,-30.449443065178592" fill="none" id="id8" stroke="none" /><text fill="#e1ed5e" style="font-size:6.75px; font-family:Arial;" text-anchor="middle"><textPath startOffset="22.20632615414155" xlink:href="#id8">August</textPath></text><path d="M 89.4739219176387 118.17145234162733 l -11.03860266079852 19.0562373373411 a43.02250962447425,43.02250962447425 0 0,0 -0.6376184411489068,-0.37671621396448707 l 11.364988972975809 -18.86340255108286" fill="#ffb811" stroke="none" /><path d="M 88.24862548938628 117.40417183066458 l -17.751783665497467 26.290974977953244 a52.72288115222175,52.72288115222175 0 0,0 -0.7477689130492775,-0.5143222769162731 l 18.201709463169635 -25.98151191167187" fill="#baff1f" stroke="none" /><path d="M 85.44109423537348 115.13401014063109 l -17.019374093982115 17.69167163313437 a45.54901911941821,45.54901911941821 0 0,0 -0.5603614885113121,-0.5484316569677524 l 17.321385534869222 -17.396089873244048" fill="#ffde14" stroke="none" /><path d="M 85.18274418774928 114.88116024355367 l -25.09846972753488 25.20671537401862 a56.57121986396828,56.57121986396828 0 0,0 -0.6841329350713993,-0.6930230512912233 l 25.52864328766181 -24.770951828746732" fill="#88ff25" stroke="none" /><path d="M 83.95833913139862 113.55231037782056 l -21.710519820788527 18.341473833987365 a49.42105440147664,49.42105440147664 0 0,0 -0.5434056738466717,-0.6545671401590064 l 22.023021494528734 -17.965045436714597" fill="#e8ff1a" stroke="none" /><path d="M 83.72743513129214 113.27417163493432 l -18.94056093781422 15.450561038104068 a45.44309074219611,45.44309074219611 0 0,0 -0.4892318494131484,-0.6103919549786186 l 19.20371069928223 -15.12224124954719" fill="#ffdd14" stroke="none" /><line stroke="#e1ed5e" stroke-width="0.3" x1="26.63291911575756" x2="22.317208475507996" y1="142.92168965132927" y2="145.44649492493687" /><path d="M 25.769776987707644 143.4266507060508 a86.0,86.0 0 0,1 -11.730757126820373,-40.83630448921669" fill="none" id="id9" stroke="none" /><text fill="#e1ed5e" style="font-size:6.75px; font-family:Arial;" text-anchor="middle"><textPath startOffset="21.46611528233685" xlink:href="#id9">September</textPath></text><path d="M 81.51974371655577 109.97397251340807 l -27.704261117901137 14.952256865710886 a52.481678314013806,52.481678314013806 0 0,0 -0.4222213293000487,-0.79868363677328 l 27.95753495542607 -14.47315821385148" fill="#bdff1f" stroke="none" /><path d="M 80.45479744820244 107.68017299344265 l -23.186998230410516 9.111195299013335 a45.91286347880996,45.91286347880996 0 0,0 -0.28270456609773276,-0.7380524137929924 l 23.34039707610176 -8.710719318387184" fill="#ffe415" stroke="none" /><path d="M 79.67330655649465 105.27499134158121 l -33.02337997859058 8.569915413983393 a55.11725480476422,55.11725480476422 0 0,0 -0.23041292185593437,-0.9203850870891026 l 33.16600421474157 -8.000202487496898" fill="#9aff22" stroke="none" /><path d="M 79.1416061653843 102.43462659150553 l -34.33798092016325 4.007986526177284 a55.57109905206246,55.57109905206246 0 0,0 -0.1027210556313401,-0.9510693998198261 l 34.401884277295636 -3.416320804472676" fill="#95ff23" stroke="none" /><line stroke="#e1ed5e" stroke-width="0.3" x1="15.007084014347285" x2="10.007500721073583" y1="101.09737516637583" y2="101.16192664675087" /><path d="M 14.007167355692545 101.11028546245083 a86.0,86.0 0 0,1 10.666146001902534,-42.60595125391555" fill="none" id="id10" stroke="none" /><text fill="#e1ed5e" style="font-size:6.75px; font-family:Arial;" text-anchor="middle"><textPath startOffset="22.20632615414155" xlink:href="#id10">October</textPath></text><path d="M 79.46518482838121 95.60439243477599 l -53.80695444199335 -11.517720224420442 a76.02586869364964,76.02586869364964 0 0,0 0.2849363142493474,-1.277313626383234 l 53.60072374074196 12.442212020353635" fill="#41ffd1" stroke="none" /><path d="M 80.2630227832202 92.82701384747504 l -59.210931650339425 -21.518958457574875 a84.0,84.0 0 0,0 0.5055816459934896,-1.3547074518826343 l 58.83174541584431 22.534989046486853" fill="#4dd2ff" stroke="none" /><line stroke="#e1ed5e" stroke-width="0.3" x1="26.266209847984243" x2="21.928928074336255" y1="57.711370442889674" y2="55.22380399835377" /><path d="M 25.398753493254645 57.213857153982495 a86.0,86.0 0 0,1 29.58750427330803,-30.492523968695096" fill="none" id="id11" stroke="none" /><text fill="#e1ed5e" style="font-size:6.75px; font-family:Arial;" text-anchor="middle"><textPath startOffset="21.46611528233685" xlink:href="#id11">November</textPath></text><path d="M 85.83668400450813 84.49514656593479 l -38.751800374353216 -42.422338476508294 a78.45743497641675,78.45743497641675 0 0,0 1.0049613309552206,-0.9022642055345 l 38.015828055802025 43.08310169081208" fill="#45ffee" stroke="none" /><line stroke="#e1ed5e" stroke-width="0.3" x1="56.762969772571076" x2="54.21961505331055" y1="26.818313649435495" y2="22.513508569990535" /><path d="M 56.25429882871897 25.957352633546506 a86.0,86.0 0 0,1 42.265352541879196,-11.944610805530505" fill="none" id="id12" stroke="none" /><text fill="#e1ed5e" style="font-size:6.75px; font-family:Arial;" text-anchor="middle"><textPath startOffset="22.20632615414155" xlink:href="#id12">December</textPath></text></svg>