<?xml version="1.0" encoding="utf-8" ?>
<svg baseProfile="full" height="200mm" version="1.1" viewBox="0,0,200,200" width="200mm" xmlns="http://www.w3.org/2000/svg" xmlns:ev="http://www.w3.org/2001/xml-events" xmlns:xlink="http://www.w3.org/1999/xlink"><defs /><rect fill="#1a1a1a" height="200" width="200" x="0" y="0" /><text alignment-baseline="middle" fill="#e1ed5e" style="dominant-baseline: central; font-size:9.0px; font-family:Arial;" text-anchor="middle" x="100.0" y="100.0">2024</text><line stroke="#e1ed5e" stroke-width="0.3" x1="100.0" x2="100.0" y1="15.0" y2="10.0" /><path d="M 100.0 14.0 a86.0,86.0 0 0,1 42.35913384403234,11.155469271406648" fill="none" id="id13" stroke="none" /><text fill="#e1ed5e" style="font-size:6.75px; font-family:Arial;" text-anchor="middle"><textPath startOffset="22.145653131862478" xlink:href="#id13">January</textPath></text><line stroke="#e1ed5e" stroke-width="0.3" x1="143.13028292997686" x2="145.6673583964461" y1="26.7553504044142" y2="22.446841604673864" /><path d="M 143.63769802327073 25.89364864446614 a86.0,86.0 0 0,1 29.32050498858742,28.57503671076993" fill="none" id="id14" stroke="none" /><text fill="#e1ed5e" style="font-size:6.75px; font-family:Arial;" text-anchor="middle"><textPath startOffset="20.669276256404974" xlink:href="#id14">February</textPath></text><line stroke="#e1ed5e" stroke-width="0.3" x1="172.87174338648825" x2="177.1583165268699" y1="56.24261187166439" y2="53.66864786411523" /><path d="M 173.72905801456457 55.72781907015455 a86.0,86.0 0 0,1 12.242430191666344,42.057860355516425" fill="none" id="id15" stroke="none" /><text fill="#e1ed5e" style="font-size:6.75px; font-family:Arial;" text-anchor="middle"><textPath startOffset="22.145653131862474" xlink:href="#id15">March</textPath></text><path d="M 120.65975698304385 96.23510406497455 l 3.737219357252077 -0.6810458602182345 a24.798767166850322,24.798767166850322 0 0,0 0.07272555247324115,0.41946166060215667 l -3.748359727217552 0.6167911666954853" fill="#ff2c04" stroke="none" /><path d="M 120.77682067341334 96.94652285012252 l 5.05163601608826 -0.7424165317247988 a26.10589940613976,26.10589940613976 0 0,0 0.0613556802833818,0.4439391382326166 l -5.063636212926855 0.6555890852920966" fill="#ff3f05" stroke="none" /><path d="M 120.86939407059847 97.66154086499901 l 15.358745501756607 -1.7209794687492836 a36.454864403144576,36.454864403144576 0 0,0 0.06434736218237362,0.6225023578931709 l -15.386025256420647 1.4570725885731814" fill="#ffc812" stroke="none" /><path d="M 120.96210409425399 98.7389718711861 l 15.728437955957665 -0.9461837702735084 a36.756872286768676,36.756872286768676 0 0,0 0.032483291723341884,0.6301671814517084 l -15.742362837137579 0.6760447954450695" fill="#ffcc13" stroke="none" /><path d="M 120.98066250479742 99.09900007780936 l 4.460731802596343 -0.19156301695113861 a25.464843178002766,25.464843178002766 0 0,0 0.01500644785256956,0.43689635575673824 l -4.463362937445761 0.11496039663028039" fill="#ff3605" stroke="none" /><path d="M 120.99303781780057 99.45929381324524 l 33.29005783881557 -0.8574338019630784 a54.30109823468942,54.30109823468942 0 0,0 0.01600219336633004,0.9320475392838328 l -33.29987146378056 0.28583934671017924" fill="#68ff28" stroke="none" /><line stroke="#e1ed5e" stroke-width="0.3" x1="184.99686870605535" x2="189.99668451229388" y1="99.2704041080226" y2="99.22748670261217" /><path d="M 185.99683186730306 99.26182062694052 a86.0,86.0 0 0,1 -10.086455211305974,41.156179273409016" fill="none" id="id16" stroke="none" /><text fill="#e1ed5e" style="font-size:6.75px; font-family:Arial;" text-anchor="middle"><textPath startOffset="21.40746469413373" xlink:href="#id16">April</textPath></text><path d="M 120.98066250479742 100.90099992219065 l 24.907323588907825 1.069627644525128 a45.930280216244995,45.930280216244995 0 0,0 -0.0405901426965587,0.787437924569472 l -24.885291856754694 -1.497037362471331" fill="#c3ff1e" stroke="none" /><path d="M 120.96210409425399 101.26102812881392 l 46.833250603652886 2.817372059095256 a67.91791712580519,67.91791712580519 0 0,0 -0.08000096360055907,1.1631964529541032 l -46.77798567888726 -3.6209119362037026" fill="#39ff8b" stroke="none" /><path d="M 120.93736805541906 101.62068470465957 l 23.864762580578837 1.8472835550438549 a44.936151519409535,44.936151519409535 0 0,0 -0.06613398349382663,0.768577135129061 l -23.829534974387272 -2.2566817375485733" fill="#cfff1d" stroke="none" /><path d="M 120.77682067341334 103.0534771498775 l 7.087907956215674 1.04167838404815 a28.164044461865004,28.164044461865004 0 0,0 -0.07440472200456003,0.4777316896154473 l -7.068981742072847 -1.163198255595048" fill="#ff5b08" stroke="none" /><path d="M 120.7213421655516 103.40968896794604 l 18.597533702576065 3.0602170935673163 a39.84763084523395,39.84763084523395 0 0,0 -0.11685826752884791,0.6740074332302656 l -18.542260617554984 -3.3790175597181697" fill="#fff316" stroke="none" /><path d="M 120.592083275326 104.11899336999214 l 21.02737137982369 4.206063181846032 a42.44391089877752,42.44391089877752 0 0,0 -0.14904338815440762,0.713226566632691 l -20.952070280844918 -4.566406199764132" fill="#ecff1a" stroke="none" /><path d="M 120.43855184770803 104.8234425847677 l 21.43542571187318 5.058702102363879 a43.02425804447665,43.02425804447665 0 0,0 -0.17581038107608082,0.7173663502300769 l -21.345427804280803 -5.425924277202055" fill="#e5ff1a" stroke="none" /><path d="M 120.35273937422433 105.17358676015961 l 7.492554159936075 1.9045779680506232 a28.7308334011256,28.7308334011256 0 0,0 -0.12560917768905422,0.4769585071071155 l -7.458755501442291 -2.0329169795305417" fill="#ff6309" stroke="none" /><path d="M 120.16314734710363 105.8691983318838 l 21.20018121285596 6.171063776310797 a43.08007499057071,43.08007499057071 0 0,0 -0.21278209107340917,0.7082823775588468 l -21.09112280177892 -6.534083757460367" fill="#e5ff1a" stroke="none" /><path d="M 119.94978838288452 106.5578916946017 l 38.68093368032157 12.715191201689448 a61.71720419769703,61.71720419769703 0 0,0 -0.3394874678394876,1.0036343756976118 l -38.45696079090972 -13.377327251861221" fill="#31ff44" stroke="none" /><path d="M 119.83427380445688 106.89939002012753 l 48.89883310126499 17.009552475722085 a72.7727800498458,72.7727800498458 0 0,0 -0.4205567720132765,1.1763721406620244 l -48.59963615920777 -17.84645957276503" fill="#3fffbf" stroke="none" /><path d="M 119.71291397450082 107.23885506374661 l 20.777350390055254 7.629730859518833 a43.133935082127245,43.133935082127245 0 0,0 -0.2612053823231634,0.6928783096784518 l -20.64331432391765 -7.985277449391444" fill="#e4ff1a" stroke="none" /><path d="M 119.4528033332814 107.91128576633889 l 20.409150948139892 8.300224015673765 a43.03241160504966,43.03241160504966 0 0,0 -0.28416587318517145,0.6818946486905909 l -20.263659230418234 -8.649351173805632" fill="#e5ff1a" stroke="none" /><path d="M 119.31412917781788 108.2440532568976 l 20.57493185371486 8.782214947276653 a43.37085425649141,43.37085425649141 0 0,0 -0.2981562791722679,0.6822399155782318 l -20.42114169252563 -9.13411693263073" fill="#e1ff1b" stroke="none" /><path d="M 119.16976305983485 108.57439118712176 l 30.640559009387072 13.705132312722299 a54.56597247387533,54.56597247387533 0 0,0 -0.38979731244631843,0.8517774749098258 l -30.400777232085698 -14.229098769846813" fill="#66ff29" stroke="none" /><path d="M 119.0197475246899 108.90220220490707 l 45.12683612911849 21.121637895961953 a70.82524386726521,70.82524386726521 0 0,0 -0.5248512859901908,1.0967373258964213 l -44.757605585168385 -21.89318772392348" fill="#3dffaa" stroke="none" /><path d="M 118.70294669586154 109.54985784667822 l 19.66064678259233 10.038866334846249 a43.075322629551025,43.075322629551025 0 0,0 -0.3419194623165204,0.6556756527629338 l -19.48541925130086 -10.374888230713685" fill="#e5ff1a" stroke="none" /><line stroke="#e1ed5e" stroke-width="0.3" x1="174.33088141563837" x2="178.70328620479359" y1="141.23008692659167" y2="143.65538615756765" /><path d="M 175.20536237346943 141.71514677278685 a86.0,86.0 0 0,1 -30.301960400862466,31.631185727798858" fill="none" id="id17" stroke="none" /><text fill="#e1ed5e" style="font-size:6.75px; font-family:Arial;" text-anchor="middle"><textPath startOffset="22.145653131862474" xlink:href="#id17">May</textPath></text><path d="M 117.423217284605 111.72311816256416 l 18.29002933482994 12.306347994548187 a43.04475842534592,43.04475842534592 0 0,0 -0.4177601687328909,0.6095245710951878 l -18.076079429281727 -12.61850730071342" fill="#e5ff1a" stroke="none" /><path d="M 117.21940702142032 112.02048342749411 l 18.18710007787825 12.696008335731873 a43.180154122632516,43.180154122632516 0 0,0 -0.42950867806510507,0.604157744543949 l -17.96647630128318 -13.006343306985327" fill="#e3ff1b" stroke="none" /><path d="M 117.01052211995028 112.31430620078461 l 27.051368477668763 19.583104635781716 a54.39572612911099,54.39572612911099 0 0,0 -0.5540540934422873,0.7516807869240992 l -26.71121236464265 -20.04459173197469" fill="#67ff28" stroke="none" /><path d="M 116.79662413953412 112.60449989151573 l 26.28164799080709 19.722238617537524 a53.85866274211084,53.85866274211084 0 0,0 -0.5612791354024931,0.7347324055441666 l -25.939216878050296 -20.17049193632257" fill="#6dff28" stroke="none" /><path d="M 116.57777611688842 112.89097897827486 l 20.326236429631585 15.805804389823454 a46.74838518825296,46.74838518825296 0 0,0 -0.4980563371386184,0.6292779117577788 l -20.051913661851405 -16.152402245495914" fill="#baff1f" stroke="none" /><path d="M 116.1254893667686 113.45245675266167 l 38.57896054632314 32.183940996021526 a71.24084249761495,71.24084249761495 0 0,0 -0.7914702788108077,0.9323499983154228 l -38.02079570400522 -32.841457776786505" fill="#3dffaf" stroke="none" /><path d="M 115.89218393027572 113.72728997021213 l 16.70482825272855 14.429232780961044 a43.07383169276052,43.07383169276052 0 0,0 -0.48814739884700165,0.5554221319058262 l -16.454669789922963 -14.713867190678164" fill="#e5ff1a" stroke="none" /><path d="M 115.6541949942343 113.99807769240083 l 18.9903305459057 16.98127067433806 a46.47540398026875,46.47540398026875 0 0,0 -0.5369066599959832,0.5901544715388142 l -18.696026185067836 -17.304762721434546" fill="#bdff1f" stroke="none" /><path d="M 115.41159269507618 114.26474011684316 l 20.562554850928233 19.032393788899952 a49.01875577774983,49.01875577774983 0 0,0 -0.576890453713232,0.612637670322165 l -20.23280856347874 -19.382572919166613" fill="#a1ff22" stroke="none" /><path d="M 115.16444852881244 114.52719865689866 l 15.972044543372967 15.30085737028671 a43.118373429376476,43.118373429376476 0 0,0 -0.5166262794161647,0.5301040749721154 l -15.707031462805995 -15.572784137326563" fill="#e4ff1a" stroke="none" /><path d="M 114.91283532996324 114.78537596483092 l 24.06834149572422 23.862630411349183 a54.89262740631725,54.89262740631725 0 0,0 -0.6691883876815499,0.6634688631806346 l -23.655161187912704 -24.272279284758483" fill="#62ff29" stroke="none" /><path d="M 114.39649973595853 115.28858382429668 l 34.65591827916861 36.80338424871772 a71.55216873617962,71.55216873617962 0 0,0 -0.9014558878815546,0.8343741118681881 l -34.01903261997309 -37.39287610671829" fill="#3effb2" stroke="none" /><path d="M 114.13192950727249 115.5334660781643 l 15.34437395598026 16.866154916299866 a43.801688397169,43.801688397169 0 0,0 -0.5605259788811415,0.5012257866902236 l -15.052582950275742 -17.127076232873478" fill="#dcff1b" stroke="none" /><path d="M 113.86319453409587 115.77377054828091 l 24.902569417002997 28.33455269493273 a58.722471286894404,58.722471286894404 0 0,0 -0.7628902460048241,0.6589664245204194 l -24.41249969123532 -28.75786325191787" fill="#3cff2e" stroke="none" /><path d="M 113.59037401385872 116.0094264158162 l 22.967930083944903 27.056163886848367 a56.49030595265388,56.49030595265388 0 0,0 -0.744665074225794,0.6212260898502936 l -22.500090675557214 -27.446452160610534" fill="#52ff2b" stroke="none" /><path d="M 113.31354834802062 116.24036423190432 l 14.57171741115874 17.775125913504763 a43.98456111287782,43.98456111287782 0 0,0 -0.5880300785096555,0.47367540678217285 l -14.264436562293831 -18.02264961408034" fill="#daff1c" stroke="none" /><path d="M 113.03279911837588 116.46651593811092 l 17.340243466645347 21.908831159044375 a48.940667963347806,48.940667963347806 0 0,0 -0.6632394002513308,0.515738969203086 l -16.961594121758786 -22.203271179868253" fill="#a2ff22" stroke="none" /><path d="M 112.7482090630111 116.68781488649013 l 31.225697111283846 40.87543987701392 a72.43778518973207,72.43778518973207 0 0,0 -0.9946294690182476,0.746388496294979 l -30.519414653354833 -41.40544740057291" fill="#3fffbb" stroke="none" /><path d="M 111.8722381534696 117.32195027204791 l 19.854348707394582 28.96808811848844 a56.11901610004659,56.11901610004659 0 0,0 -0.7993050487556175,0.5378081086537163 l -19.354147370541963 -29.304645901199276" fill="#56ff2b" stroke="none" /><path d="M 111.5731344415666 117.5232005979908 l 19.341437352832852 29.285401314432807 a56.09595317156867,56.09595317156867 0 0,0 -0.8080872288874995,0.5237923787319583 l -18.835864491688344 -29.61310753486866" fill="#56ff2b" stroke="none" /><path d="M 110.96478420261333 117.91015095944535 l 17.921227279438487 29.27297792844601 a55.32313540457191,55.32313540457191 0 0,0 -0.8142175694328917,0.48891425607352 l -17.416076953448158 -29.576306185055454" fill="#5eff2a" stroke="none" /><line stroke="#e1ed5e" stroke-width="0.3" x1="143.1302829299769" x2="145.66735839644613" y1="173.24464959558577" y2="177.55315839532614" /><path d="M 143.63769802327073 174.10635135553383 a86.0,86.0 0 0,1 -40.68552437913181,11.842963189579606" fill="none" id="id18" stroke="none" /><text fill="#e1ed5e" style="font-size:6.75px; font-family:Arial;" text-anchor="middle"><textPath startOffset="21.407464694133747" xlink:href="#id18">June</textPath></text><path d="M 110.65571695917076 118.09573695890943 l 21.71634753777999 36.87910576619789 a63.79799285592787,63.79799285592787 0 0,0 -0.9484863764290079,0.5476088647539825 l -21.08006869349058 -37.24646152822804" fill="#34ff5c" stroke="none" /><path d="M 110.34350942703117 118.27599006163325 l 31.03052828109348 54.82797018489977 a84.0,84.0 0 0,0 -1.2610232473756222,0.6994683382674252 l -30.084760845561767 -55.352571438600336" fill="#4dd2ff" stroke="none" /><path d="M 110.02825361518725 118.45085714620011 l 7.572374598209565 13.932316366379638 a36.85718437770399,36.85718437770399 0 0,0 -0.5584937279810723,0.2973664528655925 l -7.332092054441939 -14.060253286967798" fill="#ffce13" stroke="none" /><path d="M 109.71004243097381 118.62028667847754 l 0.3312704522236498 0.6352547717852395 a21.716441719606262,21.716441719606262 0 0,0 -0.3320265846385263,0.16953513989951072 l -0.3203166458715412 -0.6408478633575864" fill="#ff0000" stroke="none" /><path d="M 109.06512990194946 118.94263497670748 l 14.534872555523284 30.372293417773466 a54.67103692583033,54.67103692583033 0 0,0 -0.850033837172916,0.3978587565215192 l -14.011350004478862 -30.61732840586552" fill="#65ff29" stroke="none" /><path d="M 108.73861861582097 119.09545874513695 l 13.945217577124541 30.472817117093417 a54.5121123823188,54.5121123823188 0 0,0 -0.8542478841451874,0.3820942129837158 l -13.420056290123727 -30.707715080986983" fill="#66ff29" stroke="none" /><line stroke="#e1ed5e" stroke-width="0.3" x1="101.45913802915013" x2="101.54496967792366" y1="184.9874750549273" y2="189.98673829345242" /><path d="M 101.47630435890484 185.9873277026323 a86.0,86.0 0 0,1 -42.54439059252881,-10.42667462771756" fill="none" id="id19" stroke="none" /><text fill="#e1ed5e" style="font-size:6.75px; font-family:Arial;" text-anchor="middle"><textPath startOffset="22.145653131862474" xlink:href="#id19">July</textPath></text><line stroke="#e1ed5e" stroke-width="0.3" x1="58.13341422392154" x2="55.67067388415222" y1="173.97424548756322" y2="178.32567169271397" /><path d="M 57.64086615596768 174.84453072859336 a86.0,86.0 0 0,1 -31.369924170532247,-30.572349798747897" fill="none" id="id20" stroke="none" /><text fill="#e1ed5e" style="font-size:6.75px; font-family:Arial;" text-anchor="middle"><textPath startOffset="22.145653131862474" xlink:href="#id20">August</textPath></text><line stroke="#e1ed5e" stroke-width="0.3" x1="26.387840678322732" x2="22.057713659400548" y1="142.50000000000003" y2="145.00000000000006" /><path d="M 25.521815274538298 143.00000000000003 a86.0,86.0 0 0,1 -11.493303480769221,-40.785679425670985" fill="none" id="id21" stroke="none" /><text fill="#e1ed5e" style="font-size:6.75px; font-family:Arial;" text-anchor="middle"><textPath startOffset="21.40746469413373" xlink:href="#id21">September</textPath></text><line stroke="#e1ed5e" stroke-width="0.3" x1="15.003131293944662" x2="10.003315487706104" y1="100.72959589197737" y2="100.7725132973878" /><path d="M 14.003168132696942 100.73817937305945 a86.0,86.0 0 0,1 10.791469493833604,-42.45332614584628" fill="none" id="id22" stroke="none" /><text fill="#e1ed5e" style="font-size:6.75px; font-family:Arial;" text-anchor="middle"><textPath startOffset="22.145653131862435" xlink:href="#id22">October</textPath></text><line stroke="#e1ed5e" stroke-width="0.3" x1="26.387840678322718" x2="22.05771365940052" y1="57.49999999999999" y2="54.99999999999999" /><path d="M 25.521815274538284 56.99999999999999 a86.0,86.0 0 0,1 29.574782752854787,-30.34633250058573" fill="none" id="id23" stroke="none" /><text fill="#e1ed5e" style="font-size:6.75px; font-family:Arial;" text-anchor="middle"><textPath startOffset="21.40746469413373" xlink:href="#id23">November</textPath></text><line stroke="#e1ed5e" stroke-width="0.3" x1="56.869717070023135" x2="54.33264160355391" y1="26.7553504044142" y2="22.446841604673864" /><path d="M 56.362301976729285 25.89364864446614 a86.0,86.0 0 0,1 42.16139366436587,-11.88097634709845" fill="none" id="id24" stroke="none" /><text fill="#e1ed5e" style="font-size:6.75px; font-family:Arial;" text-anchor="middle"><textPath startOffset="22.145653131862474" xlink:href="#id24">December</textPath></text></svg>