<?xml version="1.0" encoding="utf-8" ?>
<svg baseProfile="full" height="200mm" version="1.1" viewBox="0,0,200,200" width="200mm" xmlns="http://www.w3.org/2000/svg" xmlns:ev="http://www.w3.org/2001/xml-events" xmlns:xlink="http://www.w3.org/1999/xlink"><defs /><rect fill="#1a1a1a" height="200" width="200" x="0" y="0" /><text alignment-baseline="middle" fill="#e1ed5e" style="dominant-baseline: central; font-size:9.0px; font-family:Arial;" text-anchor="middle" x="100.0" y="100.0">2025</text><line stroke="#e1ed5e" stroke-width="0.3" x1="100.0" x2="100.0" y1="15.0" y2="10.0" /><path d="M 100.0 14.0 a86.0,86.0 0 0,1 42.46469731375804,11.215312516191453" fill="none" id="id25" stroke="none" /><text fill="#e1ed5e" style="font-size:6.75px; font-family:Arial;" text-anchor="middle"><textPath startOffset="22.20632615414155" xlink:href="#id25">January</textPath></text><path d="M 100.36148047927253 79.00311137660856 l 0.32386063620407624 -18.8117093392226 a39.81449690996486,39.81449690996486 0 0,0 0.6851380341132162,0.01769509406705151 l -0.6476253055121602 18.80334745301319" fill="#ffde14" stroke="none" /><path d="M 102.52436894288641 79.15227682838746 l 2.451033915578661 -20.242079391846186 a41.38993245111717,41.38993245111717 0 0,0 0.706556246275269,0.09173127906657651 l -2.799104890361776 20.196889789615476" fill="#fff216" stroke="none" /><path d="M 102.88285421437855 79.19881850522331 l 1.2654301387556013 -9.130687862719368 a30.217959333956827,30.217959333956827 0 0,0 0.5146133145699237,0.07584062544281227 l -1.4224124337541808 9.107552753115586" fill="#ff5c08" stroke="none" /><path d="M 103.95276090670814 79.375362276772 l 10.23521663437335 -53.405111031243784 a75.37706817962908,75.37706817962908 0 0,0 1.2721983294641537,0.25519101667000815 l -11.152981373304629 53.221016058496566" fill="#42ffd7" stroke="none" /><path d="M 105.01212808612495 79.60689891045804 l 5.1693600677231295 -21.032838869611275 a42.65877638336943,42.65877638336943 0 0,0 0.7115709612698803,0.18139528181605474 l -5.530639917678035 20.94074059162635" fill="#fcff18" stroke="none" /><path d="M 106.0581310904928 79.89281104454417 l 8.19736904393043 -27.20740866148968 a49.41548777191221,49.41548777191221 0 0,0 0.8123309139761302,0.2523951691966551 l -8.664485330617278 27.062273357410504" fill="#aaff21" stroke="none" /><path d="M 106.40334571778207 80.00007090966166 l 18.34256198713632 -57.29035339433898 a81.15508434288981,81.15508434288981 0 0,0 1.326758786537119,0.437411512104727 l -19.326003595915857 56.966128157975014" fill="#49edff" stroke="none" /><line stroke="#e1ed5e" stroke-width="0.3" x1="143.23703022742887" x2="145.7803849466894" y1="26.81831364943548" y2="22.513508569990506" /><path d="M 143.74570117128098 25.957352633546492 a86.0,86.0 0 0,1 28.547481713284135,27.462654790039103" fill="none" id="id26" stroke="none" /><text fill="#e1ed5e" style="font-size:6.75px; font-family:Arial;" text-anchor="middle"><textPath startOffset="19.985693538727396" xlink:href="#id26">February</textPath></text><path d="M 113.06298171725822 83.55741782278167 l 7.072198154131809 -8.901887933384554 a32.36923900311023,32.36923900311023 0 0,0 0.43328014642038115,0.3503490791241466 l -7.224381699116681 8.778832756996279" fill="#ff7a0b" stroke="none" /><path d="M 113.6212207817346 84.01681056812373 l 9.20483384354461 -10.800985122244217 a35.19120310961002,35.19120310961002 0 0,0 0.4576636096340844,0.39688137238257976 l -9.38939125182546 10.640938756441965" fill="#ffa10e" stroke="none" /><path d="M 113.89432698308785 84.25364557470407 l 11.96325940768488 -13.557887542480842 a39.08136859505159,39.08136859505159 0 0,0 0.5005932734180961,0.449437583540829 l -12.194863668698968 13.349950950170715" fill="#ffd513" stroke="none" /><path d="M 114.94478906791727 85.2469230424477 l 37.499769474920676 -37.01872153830776 a73.69362822014597,73.69362822014597 0 0,0 0.883396179066085,0.9104174152440174 l -38.13142991768987 36.36773992751363" fill="#40ffc5" stroke="none" /><path d="M 117.2510076193507 88.02491185347247 l 6.326998038250665 -4.391996159457393 a28.7019825006758,28.7019825006758 0 0,0 0.27823911542579716,0.40828156898381324 l -6.401661619345196 4.282436567203173" fill="#ff4706" stroke="none" /><path d="M 117.65298651832404 88.62581576622439 l 25.294184475102732 -16.29756607836799 a51.08997222230853,51.08997222230853 0 0,0 0.46996060675765206,0.7433648186067732 l -25.57097267810634 15.85975361204701" fill="#97ff23" stroke="none" /><line stroke="#e1ed5e" stroke-width="0.3" x1="172.23445277983987" x2="176.4835382374775" y1="55.19839476539836" y2="52.563006222186495" /><path d="M 173.08426987136738 54.67131705675599 a86.0,86.0 0 0,1 12.851231095245387,41.99856678651699" fill="none" id="id27" stroke="none" /><text fill="#e1ed5e" style="font-size:6.75px; font-family:Arial;" text-anchor="middle"><textPath startOffset="22.20632615414155" xlink:href="#id27">March</textPath></text><path d="M 117.84615892207809 88.93136811851018 l 44.45597788100446 -27.572703809542993 a73.31240736885604,73.31240736885604 0 0,0 0.655916339724413,1.0781540009177801 l -44.92401001901509 26.80338203541813" fill="#3fffc1" stroke="none" /><path d="M 118.03404312379186 89.2402003453031 l 44.26841205434198 -26.412227223073057 a72.54898692211373,72.54898692211373 0 0,0 0.6306245566481241,1.0779417872651185 l -44.71649628546043 25.646306023454045" fill="#3effb8" stroke="none" /><path d="M 118.56541770881063 90.18545643968196 l 2.5845791569230148 -1.3663287903655836 a23.923508813358147,23.923508813358147 0 0,0 0.18932673764242583,0.36571899563490545 l -2.607715327725557 1.3216370724703332" fill="#ff0000" stroke="none" /><path d="M 118.73160827565052 90.50648371742162 l 6.215738731282367 -3.150248285428284 a27.96846268809754,27.96846268809754 0 0,0 0.2139454039966227,0.4313008793316797 l -6.269044148232398 3.0427878175976546" fill="#ff3c05" stroke="none" /><path d="M 118.89224826269711 90.83032412892265 l 5.943300042690309 -2.8846823436910496 a27.6063762851843,27.6063762851843 0 0,0 0.2038163067018611,0.42928912155276466 l -5.992074543233926 2.7819508064977443" fill="#ff3705" stroke="none" /><path d="M 119.04729006885535 91.15688171328212 l 45.865245496337316 -21.29393681238979 a71.56730652713608,71.56730652713608 0 0,0 0.5091423703013365,1.1218277235803327 l -46.224990183602 20.501287079967394" fill="#3dffad" stroke="none" /><path d="M 119.47837535516314 92.15188598940014 l 21.50621657070153 -8.665160030339901 a44.18625346055971,44.18625346055971 0 0,0 0.2781765578118109,0.7079289974634478 l -21.65218667839504 8.293682027980669" fill="#e9ff1a" stroke="none" /><path d="M 120.18372546131832 94.20196356495316 l 20.072377918411817 -5.766050411853947 a41.88414931596658,41.88414931596658 0 0,0 0.19309236939806565,0.6946559891744761 l -20.168657058376247 5.41968311926052" fill="#fff917" stroke="none" /><path d="M 120.28053869075195 94.5502522615342 l 18.031815551940632 -4.8454751386575365 a39.67150238782504,39.67150238782504 0 0,0 0.1715389493824076,0.6610095471117762 l -18.112550833193342 4.53436916599691" fill="#ffdc14" stroke="none" /><path d="M 120.45610955862082 95.25157060432595 l 21.833797307347332 -5.068228866114219 a43.41431793960372,43.41431793960372 0 0,0 0.16271192887261654,0.7294056725328965 l -21.91780362322199 4.6916450240313585" fill="#f2ff19" stroke="none" /><path d="M 120.6074358757038 95.95851677861258 l 51.44831691210062 -10.08992631703514 a73.42838855211113,73.42838855211113 0 0,0 0.2325731480480594,1.2424150566267653 l -51.614375784058545 9.202833182945811" fill="#3fffc2" stroke="none" /><path d="M 120.67395015179393 96.31383870115 l 62.02185045538181 -11.058483896549978 a84.0,84.0 0 0,0 0.2415525539191079,1.4256568467366484 l -62.20301487082114 9.98924126149749" fill="#4dd2ff" stroke="none" /><path d="M 120.78858239683441 97.02765380044208 l 22.95403685325319 -3.281962324456944 a44.18747689076283,44.18747689076283 0 0,0 0.10117669906891816,0.7538839276381827 l -23.007129551379943 2.8863600547540966" fill="#e9ff1a" stroke="none" /><path d="M 120.83666639777658 97.38593545837742 l 35.2083310587248 -4.417062117006508 a56.48432067387312,56.48432067387312 0 0,0 0.11272561620352892,0.9657642392581485 l -35.27914702793192 3.8103541394235068" fill="#5cff2a" stroke="none" /><path d="M 120.94382443527127 98.46500227214037 l 43.08049110585324 -3.1574202776067803 a64.19604167896571,64.19604167896571 0 0,0 0.07128636913378048,1.1027685784057735 l -43.12845806599144 2.4153926349479717" fill="#34ff58" stroke="none" /><line stroke="#e1ed5e" stroke-width="0.3" x1="184.98032266829074" x2="189.97916517819016" y1="98.17113171792111" y2="98.06355123074" /><path d="M 185.9800911702706 98.14961562048488 a86.0,86.0 0 0,1 -9.607161424134198,41.387399972396054" fill="none" id="id28" stroke="none" /><text fill="#e1ed5e" style="font-size:6.75px; font-family:Arial;" text-anchor="middle"><textPath startOffset="21.466115282336823" xlink:href="#id28">April</textPath></text><line stroke="#e1ed5e" stroke-width="0.3" x1="174.80103733775053" x2="179.2010983576182" y1="140.37084112569926" y2="142.7455964860345" /><path d="M 175.68104954172406 140.8457921977663 a86.0,86.0 0 0,1 -30.038265399797805,32.042727171017184" fill="none" id="id29" stroke="none" /><text fill="#e1ed5e" style="font-size:6.75px; font-family:Arial;" text-anchor="middle"><textPath startOffset="22.206326154141568" xlink:href="#id29">May</textPath></text><line stroke="#e1ed5e" stroke-width="0.3" x1="143.8653032363475" x2="146.44561519142675" y1="172.8068346515853" y2="177.08958963109032" /><path d="M 144.38136562736335 173.6633856474863 a86.0,86.0 0 0,1 -40.68145358897372,12.25698825130547" fill="none" id="id30" stroke="none" /><text fill="#e1ed5e" style="font-size:6.75px; font-family:Arial;" text-anchor="middle"><textPath startOffset="21.466115282336833" xlink:href="#id30">June</textPath></text><line stroke="#e1ed5e" stroke-width="0.3" x1="102.19456741930631" x2="102.32365962044197" y1="184.97166512339345" y2="189.96999836594603" /><path d="M 102.22038585953345 185.97133177190398 a86.0,86.0 0 0,1 -42.740103519485714,-10.115201625700543" fill="none" id="id31" stroke="none" /><text fill="#e1ed5e" style="font-size:6.75px; font-family:Arial;" text-anchor="middle"><textPath startOffset="22.20632615414155" xlink:href="#id31">July</textPath></text><line stroke="#e1ed5e" stroke-width="0.3" x1="58.666819895761336" x2="56.23545636021788" y1="174.27360380694188" y2="178.64263932499728" /><path d="M 58.180547188652646 175.14741091055294 a86.0,86.0 0 0,1 -31.652253787137756,-30.449443065178592" fill="none" id="id32" stroke="none" /><text fill="#e1ed5e" style="font-size:6.75px; font-family:Arial;" text-anchor="middle"><textPath startOffset="22.20632615414155" xlink:href="#id32">August</textPath></text><line stroke="#e1ed5e" stroke-width="0.3" x1="26.63291911575756" x2="22.317208475507996" y1="142.92168965132927" y2="145.44649492493687" /><path d="M 25.769776987707644 143.4266507060508 a86.0,86.0 0 0,1 -11.730757126820373,-40.83630448921669" fill="none" id="id33" stroke="none" /><text fill="#e1ed5e" style="font-size:6.75px; font-family:Arial;" text-anchor="middle"><textPath startOffset="21.46611528233685" xlink:href="#id33">September</textPath></text><line stroke="#e1ed5e" stroke-width="0.3" x1="15.007084014347285" x2="10.007500721073583" y1="101.09737516637583" y2="101.16192664675087" /><path d="M 14.007167355692545 101.11028546245083 a86.0,86.0 0 0,1 10.666146001902534,-42.60595125391555" fill="none" id="id34" stroke="none" /><text fill="#e1ed5e" style="font-size:6.75px; font-family:Arial;" text-anchor="middle"><textPath startOffset="22.20632615414155" xlink:href="#id34">October</textPath></text><line stroke="#e1ed5e" stroke-width="0.3" x1="26.266209847984243" x2="21.928928074336255" y1="57.711370442889674" y2="55.22380399835377" /><path d="M 25.398753493254645 57.213857153982495 a86.0,86.0 0 0,1 29.58750427330803,-30.492523968695096" fill="none" id="id35" stroke="none" /><text fill="#e1ed5e" style="font-size:6.75px; font-family:Arial;" text-anchor="middle"><textPath startOffset="21.46611528233685" xlink:href="#id35">November</textPath></text><line stroke="#e1ed5e" stroke-width="0.3" x1="56.762969772571076" x2="54.21961505331055" y1="26.818313649435495" y2="22.513508569990535" /><path d="M 56.25429882871897 25.957352633546506 a86.0,86.0 0 0,1 42.265352541879196,-11.944610805530505" fill="none" id="id36" stroke="none" /><text fill="#e1ed5e" style="font-size:6.75px; font-family:Arial;" text-anchor="middle"><textPath startOffset="22.20632615414155" xlink:href="#id36">December</textPath></text></svg>