<?xml version="1.0" encoding="utf-8" ?>
<svg baseProfile="full" height="200mm" version="1.1" viewBox="0,0,200,200" width="200mm" xmlns="http://www.w3.org/2000/svg" xmlns:ev="http://www.w3.org/2001/xml-events" xmlns:xlink="http://www.w3.org/1999/xlink"><defs /><rect fill="#1a1a1a" height="200" width="200" x="0" y="0" /><text alignment-baseline="middle" fill="#e1ed5e" style="dominant-baseline: central; font-size:9.0px; font-family:Arial;" text-anchor="middle" x="100.0" y="100.0">2025</text><line stroke="#e1ed5e" stroke-width="0.3" x1="100.0" x2="100.0" y1="15.0" y2="10.0" /><path d="M 100.0 14.0 a86.0,86.0 0 0,1 42.46469731375804,11.215312516191453" fill="none" id="id25" stroke="none" /><text fill="#e1ed5e" style="font-size:6.75px; font-family:Arial;" text-anchor="middle"><textPath startOffset="22.20632615414155" xlink:href="#id25">January</textPath></text><path d="M 100.36148047927253 79.00311137660856 l 0.3391769840194465 -19.701371900928997 a40.70429130431245,40.70429130431245 0 0,0 0.7004498433641749,0.01809055292576624 l -0.6782534625784892 19.69261455586087" fill="#ffe815" stroke="none" /><path d="M 102.52436894288641 79.15227682838746 l 2.566950713613406 -21.199388474251908 a42.35423395133539,42.35423395133539 0 0,0 0.7230175741374604,0.09386843186636196 l -2.931483016258712 21.152061719221408" fill="#fffd17" stroke="none" /><path d="M 102.88285421437855 79.19881850522331 l 1.3252761526719705 -9.562505674041358 a30.65390447678628,30.65390447678628 0 0,0 0.5220374815178891,0.07693475466330496 l -1.4896826146185154 9.538276435217085" fill="#ff6108" stroke="none" /><path d="M 103.95276090670814 79.375362276772 l 10.719270947905121 -55.93080005989613 a77.94872399794994,77.94872399794994 0 0,0 1.315602196383307,0.2638974240516102 l -11.680439553755555 55.73799867976731" fill="#45fff1" stroke="none" /><path d="M 105.01212808612495 79.60689891045804 l 5.413834721105342 -22.02754535647377 a43.683085346110985,43.683085346110985 0 0,0 0.7286569767407673,0.18575088759558786 l -5.792200586531135 21.931091472709316" fill="#f0ff19" stroke="none" /><path d="M 106.0581310904928 79.89281104454417 l 8.585047388910501 -28.494129206161585 a50.75934202712267,50.75934202712267 0 0,0 0.8344222542543966,0.2592590561562468 l -9.074255015875616 28.34213001512282" fill="#9cff22" stroke="none" /><path d="M 106.40334571778207 80.00007090966166 l 19.21003715334621 -59.99978727101504 a84.0,84.0 0 0,0 1.37326871103033,0.45274510296305515 l -20.239988686618958 59.66022844379275" fill="#4dd2ff" stroke="none" /><line stroke="#e1ed5e" stroke-width="0.3" x1="143.23703022742887" x2="145.7803849466894" y1="26.81831364943548" y2="22.513508569990506" /><path d="M 143.74570117128098 25.957352633546492 a86.0,86.0 0 0,1 28.547481713284135,27.462654790039103" fill="none" id="id26" stroke="none" /><text fill="#e1ed5e" style="font-size:6.75px; font-family:Arial;" text-anchor="middle"><textPath startOffset="19.985693538727396" xlink:href="#id26">February</textPath></text><path d="M 113.06298171725822 83.55741782278167 l 7.4066637687786185 -9.322885104881651 a32.9069246601531,32.9069246601531 0 0,0 0.4404773659839702,0.3561687301448311 l -7.56604453332708 9.19401027747269" fill="#ff800b" stroke="none" /><path d="M 113.6212207817346 84.01681056812373 l 9.64015824228254 -11.31179633666019 a35.8623479739349,35.8623479739349 0 0,0 0.46639188698901307,0.4044504484949006 l -9.833443927918317 11.144180894745618" fill="#ffa90f" stroke="none" /><path d="M 113.89432698308785 84.25364557470407 l 12.529038084097229 -14.199081000494866 a39.93649113672787,39.93649113672787 0 0,0 0.5115465385595203,0.45927153313314034 l -12.771595610252739 13.981310458592429" fill="#ffdf14" stroke="none" /><path d="M 114.94478906791727 85.2469230424477 l 39.27324685397509 -38.769448707273696 a76.18566907738992,76.18566907738992 0 0,0 0.9132693095460965,0.941204302125973 l -39.93478042722429 38.08768020959761" fill="#43ffdf" stroke="none" /><path d="M 117.2510076193507 88.02491185347247 l 6.626220888291474 -4.599706925330252 a29.066232519544755,29.066232519544755 0 0,0 0.2817701817220553,0.4134629730628764 l -6.704415535682262 4.484965928996969" fill="#ff4a06" stroke="none" /><path d="M 117.65298651832404 88.62581576622439 l 26.490422868467377 -17.068327210458683 a52.51301790551809,52.51301790551809 0 0,0 0.4830507570089571,0.7640702926979553 l -26.78030122172229 16.609809270046522" fill="#88ff25" stroke="none" /><line stroke="#e1ed5e" stroke-width="0.3" x1="172.23445277983987" x2="176.4835382374775" y1="55.19839476539836" y2="52.563006222186495" /><path d="M 173.08426987136738 54.67131705675599 a86.0,86.0 0 0,1 12.851231095245387,41.99856678651699" fill="none" id="id27" stroke="none" /><text fill="#e1ed5e" style="font-size:6.75px; font-family:Arial;" text-anchor="middle"><textPath startOffset="22.20632615414155" xlink:href="#id27">March</textPath></text><path d="M 117.84615892207809 88.93136811851018 l 46.55843536913469 -28.87670026526241 a75.78641914043752,75.78641914043752 0 0,0 0.6780509933784162,1.1145375516096563 l -47.048602160799334 28.070994940445672" fill="#42ffdb" stroke="none" /><path d="M 118.03404312379186 89.2402003453031 l 46.36199898792406 -27.661341235410962 a74.98689423460215,74.98689423460215 0 0,0 0.6518158135258768,1.114164514516041 l -46.83127447592027 26.859197308541024" fill="#41ffd2" stroke="none" /><path d="M 118.56541770881063 90.18545643968196 l 2.7068117128389666 -1.4309466063146854 a24.061770376577208,24.061770376577208 0 0,0 0.19042091705021366,0.3678326019804409 l -2.731042063049297 1.3841412820738996" fill="#ff0000" stroke="none" /><path d="M 118.73160827565052 90.50648371742162 l 6.50969979260073 -3.299233043223887 a28.29802233918795,28.29802233918795 0 0,0 0.21646637819101522,0.4363830094756445 l -6.5655261837451535 3.1866904452492926" fill="#ff3f05" stroke="none" /><path d="M 118.89224826269711 90.83032412892265 l 6.2243766554330495 -3.0211076858712236 a27.91881177647796,27.91881177647796 0 0,0 0.20612300017224716,0.43414760628157506 l -6.2754578494470525 2.9135176639491083" fill="#ff3905" stroke="none" /><path d="M 119.04729006885535 91.15688171328212 l 48.034351507160395 -22.30099140969986 a73.95878720825232,73.95878720825232 0 0,0 0.5261557832911309,1.1593145238899925 l -48.41110960741488 21.470854876967806" fill="#40ffc7" stroke="none" /><path d="M 119.47837535516314 92.15188598940014 l 22.52331051904412 -9.074961624186278 a45.28280142853656,45.28280142853656 0 0,0 0.28507992515612773,0.7254973143684629 l -22.67618399408195 8.68591530492203" fill="#dcff1b" stroke="none" /><path d="M 120.18372546131832 94.20196356495316 l 21.021661305498814 -6.0387443541126915 a42.87182382467073,42.87182382467073 0 0,0 0.1976457007703004,0.7110367447593758 l -21.122493776835476 5.675996305934364" fill="#faff18" stroke="none" /><path d="M 120.28053869075195 94.5502522615342 l 18.884594580516666 -5.074632295341573 a40.55453413925791,40.55453413925791 0 0,0 0.17535716472074547,0.6757226883584533 l -18.969148077107715 4.748813181434269" fill="#ffe615" stroke="none" /><line stroke="#e1ed5e" stroke-width="0.3" x1="184.98032266829074" x2="189.97916517819016" y1="98.17113171792111" y2="98.06355123074" /><path d="M 185.9800911702706 98.14961562048488 a86.0,86.0 0 0,1 -9.607161424134198,41.387399972396054" fill="none" id="id28" stroke="none" /><text fill="#e1ed5e" style="font-size:6.75px; font-family:Arial;" text-anchor="middle"><textPath startOffset="21.466115282336823" xlink:href="#id28">April</textPath></text><line stroke="#e1ed5e" stroke-width="0.3" x1="174.80103733775053" x2="179.2010983576182" y1="140.37084112569926" y2="142.7455964860345" /><path d="M 175.68104954172406 140.8457921977663 a86.0,86.0 0 0,1 -30.038265399797805,32.042727171017184" fill="none" id="id29" stroke="none" /><text fill="#e1ed5e" style="font-size:6.75px; font-family:Arial;" text-anchor="middle"><textPath startOffset="22.206326154141568" xlink:href="#id29">May</textPath></text><line stroke="#e1ed5e" stroke-width="0.3" x1="143.8653032363475" x2="146.44561519142675" y1="172.8068346515853" y2="177.08958963109032" /><path d="M 144.38136562736335 173.6633856474863 a86.0,86.0 0 0,1 -40.68145358897372,12.25698825130547" fill="none" id="id30" stroke="none" /><text fill="#e1ed5e" style="font-size:6.75px; font-family:Arial;" text-anchor="middle"><textPath startOffset="21.466115282336833" xlink:href="#id30">June</textPath></text><line stroke="#e1ed5e" stroke-width="0.3" x1="102.19456741930631" x2="102.32365962044197" y1="184.97166512339345" y2="189.96999836594603" /><path d="M 102.22038585953345 185.97133177190398 a86.0,86.0 0 0,1 -42.740103519485714,-10.115201625700543" fill="none" id="id31" stroke="none" /><text fill="#e1ed5e" style="font-size:6.75px; font-family:Arial;" text-anchor="middle"><textPath startOffset="22.20632615414155" xlink:href="#id31">July</textPath></text><line stroke="#e1ed5e" stroke-width="0.3" x1="58.666819895761336" x2="56.23545636021788" y1="174.27360380694188" y2="178.64263932499728" /><path d="M 58.180547188652646 175.14741091055294 a86.0,86.0 0 0,1 -31.652253787137756,-30.449443065178592" fill="none" id="id32" stroke="none" /><text fill="#e1ed5e" style="font-size:6.75px; font-family:Arial;" text-anchor="middle"><textPath startOffset="22.20632615414155" xlink:href="#id32">August</textPath></text><line stroke="#e1ed5e" stroke-width="0.3" x1="26.63291911575756" x2="22.317208475507996" y1="142.92168965132927" y2="145.44649492493687" /><path d="M 25.769776987707644 143.4266507060508 a86.0,86.0 0 0,1 -11.730757126820373,-40.83630448921669" fill="none" id="id33" stroke="none" /><text fill="#e1ed5e" style="font-size:6.75px; font-family:Arial;" text-anchor="middle"><textPath startOffset="21.46611528233685" xlink:href="#id33">September</textPath></text><line stroke="#e1ed5e" stroke-width="0.3" x1="15.007084014347285" x2="10.007500721073583" y1="101.09737516637583" y2="101.16192664675087" /><path d="M 14.007167355692545 101.11028546245083 a86.0,86.0 0 0,1 10.666146001902534,-42.60595125391555" fill="none" id="id34" stroke="none" /><text fill="#e1ed5e" style="font-size:6.75px; font-family:Arial;" text-anchor="middle"><textPath startOffset="22.20632615414155" xlink:href="#id34">October</textPath></text><line stroke="#e1ed5e" stroke-width="0.3" x1="26.266209847984243" x2="21.928928074336255" y1="57.711370442889674" y2="55.22380399835377" /><path d="M 25.398753493254645 57.213857153982495 a86.0,86.0 0 0,1 29.58750427330803,-30.492523968695096" fill="none" id="id35" stroke="none" /><text fill="#e1ed5e" style="font-size:6.75px; font-family:Arial;" text-anchor="middle"><textPath startOffset="21.46611528233685" xlink:href="#id35">November</textPath></text><line stroke="#e1ed5e" stroke-width="0.3" x1="56.762969772571076" x2="54.21961505331055" y1="26.818313649435495" y2="22.513508569990535" /><path d="M 56.25429882871897 25.957352633546506 a86.0,86.0 0 0,1 42.265352541879196,-11.944610805530505" fill="none" id="id36" stroke="none" /><text fill="#e1ed5e" style="font-size:6.75px; font-family:Arial;" text-anchor="middle"><textPath startOffset="22.20632615414155" xlink:href="#id36">December</textPath></text></svg>