<?xml version="1.0" encoding="utf-8" ?>
<svg baseProfile="full" height="200mm" version="1.1" viewBox="0,0,200,200" width="200mm" xmlns="http://www.w3.org/2000/svg" xmlns:ev="http://www.w3.org/2001/xml-events" xmlns:xlink="http://www.w3.org/1999/xlink"><defs /><rect fill="#1a1a1a" height="200" width="200" x="0" y="0" /><text alignment-baseline="middle" fill="#e1ed5e" style="dominant-baseline: central; font-size:9.0px; font-family:Arial;" text-anchor="middle" x="100.0" y="100.0">2025</text><line stroke="#e1ed5e" stroke-width="0.3" x1="100.0" x2="100.0" y1="15.0" y2="10.0" /><path d="M 100.0 14.0 a86.0,86.0 0 0,1 42.46469731375804,11.215312516191453" fill="none" id="id25" stroke="none" /><text fill="#e1ed5e" style="font-size:6.75px; font-family:Arial;" text-anchor="middle"><textPath startOffset="22.20632615414155" xlink:href="#id25">January</textPath></text><path d="M 100.36148047927253 79.00311137660856 l 0.13223924108138888 -7.6812242315701384 a28.682362456467544,28.682362456467544 0 0,0 0.4935734205454321,0.012747545269256746 l -0.26443929682168876 7.677809894158522" fill="#ff5c08" stroke="none" /><path d="M 102.52436894288641 79.15227682838746 l 1.0008096959848665 -8.265274990073861 a29.325646564028393,29.325646564028393 0 0,0 0.5006101128661271,0.0649935602564645 l -1.1429345373588398 8.24682310665326" fill="#ff6509" stroke="none" /><path d="M 102.88285421437855 79.19881850522331 l 0.5167022554884091 -3.7282556091695236 a24.763890421908005,24.763890421908005 0 0,0 0.4217302561971431,0.062152077088947696 l -0.580801492114208 3.7188090479196068" fill="#ff2503" stroke="none" /><path d="M 103.95276090670814 79.375362276772 l 4.179258386870615 -21.806451797954246 a43.2033227396426,43.2033227396426 0 0,0 0.7291766095981961,0.14626596814800832 l -4.554001405935936 21.731281873729028" fill="#e7ff1a" stroke="none" /><path d="M 105.01212808612495 79.60689891045804 l 2.1107605426964806 -8.588159038111357 a29.843742744590557,29.843742744590557 0 0,0 0.49780941960956415,0.12690270524757263 l -2.25827885099107 8.550553336694916" fill="#ff6c0a" stroke="none" /><path d="M 106.0581310904928 79.89281104454417 l 3.3471615258309866 -11.109368262092346 a32.60265286315108,32.60265286315108 0 0,0 0.5359482217521206,0.1665217213606471 l -3.537895120293826 11.050106405849178" fill="#ff920d" stroke="none" /><path d="M 106.40334571778207 80.00007090966166 l 7.489661309560255 -23.392879551369823 a45.56261061525872,45.56261061525872 0 0,0 0.7448774708427759,0.24557439088417737 l -7.891221602645448 23.26049143622641" fill="#cbff1d" stroke="none" /><line stroke="#e1ed5e" stroke-width="0.3" x1="143.23703022742887" x2="145.7803849466894" y1="26.81831364943548" y2="22.513508569990506" /><path d="M 143.74570117128098 25.957352633546492 a86.0,86.0 0 0,1 28.547481713284135,27.462654790039103" fill="none" id="id26" stroke="none" /><text fill="#e1ed5e" style="font-size:6.75px; font-family:Arial;" text-anchor="middle"><textPath startOffset="19.985693538727396" xlink:href="#id26">February</textPath></text><path d="M 113.06298171725822 83.55741782278167 l 2.8877301287405372 -3.634831692730214 a25.642304032580356,25.642304032580356 0 0,0 0.3432364055492563,0.27753996946213977 l -2.9498699328542846 3.5845856260039444" fill="#ff3204" stroke="none" /><path d="M 113.6212207817346 84.01681056812373 l 3.7585310027724272 -4.4102737901030835 a26.7945724779721,26.7945724779721 0 0,0 0.3484649479210914,0.30218536900655324 l -3.833889749340283 4.344923427676859" fill="#ff4206" stroke="none" /><path d="M 113.89432698308785 84.25364557470407 l 4.884855299102023 -5.535976154121804 a28.383010447789598,28.383010447789598 0 0,0 0.3635579975906486,0.32640595986917026 l -4.979424284288662 5.451071185483337" fill="#ff5808" stroke="none" /><path d="M 114.94478906791727 85.2469230424477 l 15.311959842398801 -15.115537656587447 a42.51593811254686,42.51593811254686 0 0,0 0.5096562373864301,0.525245552674769 l -15.569880343488341 14.849727908362565" fill="#efff19" stroke="none" /><path d="M 117.2510076193507 88.02491185347247 l 2.5834489449174174 -1.7933461928761263 a24.14488457951929,24.14488457951929 0 0,0 0.23406227522106662,0.3434575071191373 l -2.6139356858072174 1.7486106624865825" fill="#ff1c02" stroke="none" /><path d="M 117.65298651832404 88.62581576622439 l 10.328157808757286 -6.654645636893994 a33.286380763887564,33.286380763887564 0 0,0 0.3061909611634544,0.48432056864221157 l -10.441176366166696 6.475877420537577" fill="#ff9b0e" stroke="none" /><line stroke="#e1ed5e" stroke-width="0.3" x1="172.23445277983987" x2="176.4835382374775" y1="55.19839476539836" y2="52.563006222186495" /><path d="M 173.08426987136738 54.67131705675599 a86.0,86.0 0 0,1 12.851231095245387,41.99856678651699" fill="none" id="id27" stroke="none" /><text fill="#e1ed5e" style="font-size:6.75px; font-family:Arial;" text-anchor="middle"><textPath startOffset="22.20632615414155" xlink:href="#id27">March</textPath></text><path d="M 117.84615892207809 88.93136811851018 l 18.152328870281657 -11.258526102685375 a42.36027746588768,42.36027746588768 0 0,0 0.37899175790725537,0.6229628008264753 l -18.343436426475137 10.944395528651818" fill="#f1ff19" stroke="none" /><path d="M 118.03404312379186 89.2402003453031 l 18.07574172199044 -10.784678632717446 a42.048556530344264,42.048556530344264 0 0,0 0.3655027236715184,0.6247626342032605 l -18.258704120132286 10.47193658616029" fill="#f5ff19" stroke="none" /><path d="M 118.56541770881063 90.18545643968196 l 1.0553390811315086 -0.5579013381291037 a22.19373132624127,22.19373132624127 0 0,0 0.1756375614000057,0.3392758643118353 l -1.0647860756916308 0.5396527515569236" fill="#ff0000" stroke="none" /><path d="M 118.73160827565052 90.50648371742162 l 2.5380193845695587 -1.2863139138048156 a23.84537271395132,23.84537271395132 0 0,0 0.1824057316138236,0.36771882438485276 l -2.5597851291367903 1.242435500921013" fill="#ff1802" stroke="none" /><path d="M 118.89224826269711 90.83032412892265 l 2.426776827144576 -1.177877646266987 a23.697525072791976,23.697525072791976 0 0,0 0.17495748041742554,0.36850507347946077 l -2.446692501403758 1.135930157146986" fill="#ff1602" stroke="none" /><path d="M 119.04729006885535 91.15688171328212 l 18.727763051219785 -8.694770925883924 a41.64771537861343,41.64771537861343 0 0,0 0.2962891514921347,0.6528338706975951 l -18.874654519675268 8.371115046344267" fill="#f9ff18" stroke="none" /><path d="M 119.47837535516314 92.15188598940014 l 8.781449302314945 -3.538170614655609 a30.467444383123677,30.467444383123677 0 0,0 0.19180917457473842,0.48813342766591933 l -8.841052026771383 3.3864881820939052" fill="#ff750a" stroke="none" /><path d="M 120.18372546131832 94.20196356495316 l 8.195982240203474 -2.354402002780351 a29.527445905570254,29.527445905570254 0 0,0 0.13612606643072742,0.4897178879913557 l -8.235295077200565 2.2129728113700433" fill="#ff6809" stroke="none" /><path d="M 120.28053869075195 94.5502522615342 l 7.362776877908826 -1.978511382318915 a28.623974727386912,28.623974727386912 0 0,0 0.12376961436659449,0.47693481295771667 l -7.395742824145723 1.851480143812348" fill="#ff5c08" stroke="none" /><path d="M 120.45610955862082 95.25157060432595 l 8.915207540162736 -2.0694665049055327 a30.152246560222274,30.152246560222274 0 0,0 0.11300719279942846,0.5065890868361156 l -8.949509119964203 1.9156992485194533" fill="#ff710a" stroke="none" /><path d="M 120.6074358757038 95.95851677861258 l 21.007450806969477 -4.119933235390421 a42.407635069556775,42.407635069556775 0 0,0 0.13431967368316347,0.7175410677705218 l -21.0752562045625 3.757714090157336" fill="#f0ff19" stroke="none" /><path d="M 120.67395015179393 96.31383870115 l 25.324851240997624 -4.515416060224865 a46.72425067082801,46.72425067082801 0 0,0 0.13436145332732258,0.7930089033036357 l -25.39882455584517 4.078821368605392" fill="#beff1f" stroke="none" /><path d="M 120.78858239683441 97.02765380044208 l 9.372625363817608 -1.3400955797864098 a30.467943935904998,30.467943935904998 0 0,0 0.06976288785332618,0.5198145460588999 l -9.394304250728771 1.1785626916628453" fill="#ff750a" stroke="none" /><path d="M 120.83666639777658 97.38593545837742 l 14.376316410414859 -1.8035811607379946 a35.489008887281855,35.489008887281855 0 0,0 0.07082532546278468,0.6067881362677857 l -14.405232088881233 1.555849286145356" fill="#ffb711" stroke="none" /><path d="M 120.94382443527127 98.46500227214037 l 17.59068813062453 -1.2892423919732092 a38.63786990694045,38.63786990694045 0 0,0 0.04290534719419669,0.6637267307380565 l -17.610274068823145 0.9862565969821174" fill="#ffdf14" stroke="none" /><line stroke="#e1ed5e" stroke-width="0.3" x1="184.98032266829074" x2="189.97916517819016" y1="98.17113171792111" y2="98.06355123074" /><path d="M 185.9800911702706 98.14961562048488 a86.0,86.0 0 0,1 -9.607161424134198,41.387399972396054" fill="none" id="id28" stroke="none" /><text fill="#e1ed5e" style="font-size:6.75px; font-family:Arial;" text-anchor="middle"><textPath startOffset="21.466115282336823" xlink:href="#id28">April</textPath></text><path d="M 120.9904718944345 100.63252640178507 l 26.659820712859183 0.803366429899608 a47.67192227910252,47.67192227910252 0 0,0 -0.03177643975193541,0.8200087145615116 l -26.642042140256045 -1.2621523914751258" fill="#b3ff20" stroke="none" /><path d="M 120.9764740272857 100.99374915477107 l 21.440338050345176 1.0157244629303117 a42.46438426551468,42.46438426551468 0 0,0 -0.04087429349143979,0.7298379680869176 l -21.41967740596621 -1.3846341473526524" fill="#f0ff19" stroke="none" /><path d="M 120.8583938346157 102.4346265915055 l 12.28835950096625 1.4343178599582236 a33.371784307381965,33.371784307381965 0 0,0 -0.07150856797961458,0.5699936447051637 l -12.261849423739788 -1.6456292589507822" fill="#ff9c0e" stroke="none" /><path d="M 120.49622156327973 104.57218783832717 l 11.235379063346098 2.5063284641916517 a32.51153443583839,32.51153443583839 0 0,0 -0.12654640121498922,0.5451585844071495 l -11.190572096200556 -2.699355705947366" fill="#ff900d" stroke="none" /><path d="M 120.32669344350535 105.2749913415812 l 12.663479340729811 3.28630645521865 a34.08294764686852,34.08294764686852 0 0,0 -0.15225651822358252,0.5666031451249959 l -12.605034746164451 -3.503800533519194" fill="#ffa50f" stroke="none" /><path d="M 120.23288151984713 105.62410040840565 l 11.009568442367115 3.0603114199205166 a32.426990123127865,32.426990123127865 0 0,0 -0.15411677990047098,0.5365007290555968 l -10.955259025580544 -3.2493696244806953" fill="#ff8f0d" stroke="none" /><path d="M 120.02730092923936 106.31721596034902 l 16.819700788023336 5.305441938572375 a38.63661103393153,38.63661103393153 0 0,0 -0.20552423080768217,0.632538541647415 l -16.725884306199404 -5.594179380197585" fill="#ffdf14" stroke="none" /><path d="M 119.67450827220406 107.3425965602758 l 13.53904355101872 5.052819274145827 a35.451182750680346,35.451182750680346 0 0,0 -0.21828765356376043,0.5698801821200499 l -13.450061617861452 -5.285123023099021" fill="#ffb711" stroke="none" /><path d="M 119.41010516605496 108.01547362559984 l 13.02280017243263 5.377812764051417 a35.089506537004965,35.089506537004965 0 0,0 -0.23534869362777197,0.5562947908558398 l -12.928300497612549 -5.6011820805734205" fill="#ffb210" stroke="none" /><path d="M 119.12269723197855 108.67885076344098 l 11.745791160847673 5.330836301328288 a33.89889242011913,33.89889242011913 0 0,0 -0.24572723273133198,0.52927459838242 l -11.65228931127651 -5.532230966989538" fill="#ffa30f" stroke="none" /><path d="M 118.81262510543309 109.33194174019688 l 8.150556311854805 4.043057054831582 a30.098234913506005,30.098234913506005 0 0,0 -0.2342235041262148,0.4621451944306158 l -8.079754137942322 -4.1827564609648915" fill="#ff700a" stroke="none" /><path d="M 118.64920377521936 109.65438752849418 l 4.2844866084686695 2.2180085851045255 a25.824560869316993,25.824560869316993 0 0,0 -0.20776165643165148,0.39300675694418463 l -4.245672443812125 -2.2914303571348444" fill="#ff3405" stroke="none" /><line stroke="#e1ed5e" stroke-width="0.3" x1="174.80103733775053" x2="179.2010983576182" y1="140.37084112569926" y2="142.7455964860345" /><path d="M 175.68104954172406 140.8457921977663 a86.0,86.0 0 0,1 -30.038265399797805,32.042727171017184" fill="none" id="id29" stroke="none" /><text fill="#e1ed5e" style="font-size:6.75px; font-family:Arial;" text-anchor="middle"><textPath startOffset="22.206326154141568" xlink:href="#id29">May</textPath></text><path d="M 118.48025628344425 109.97397251340804 l 18.620404762500193 10.04961199894658 a42.15925742668468,42.15925742668468 0 0,0 -0.3501699550104978,0.635660182083079 l -18.444658398038186 -10.368642699427463" fill="#f3ff19" stroke="none" /><path d="M 118.12598468904814 110.60418214915192 l 18.72774654586289 10.956228807556702 a42.69717586160961,42.69717586160961 0 0,0 -0.3765873106307677,0.6311819938788031 l -18.53637835953389 -11.276972895321608" fill="#edff1a" stroke="none" /><path d="M 117.94076556474637 110.91462005526583 l 19.344527104310085 11.768626189911483 a43.643129008316365,43.643129008316365 0 0,0 -0.3959790148389114,0.6384442543834971 l -19.13908344980321 -12.099866775660255" fill="#e2ff1b" stroke="none" /><path d="M 117.35343817320211 111.8261652097733 l 11.90101015776447 8.110399269826218 a35.40182693588597,35.40182693588597 0 0,0 -0.34750954711269455,0.5006134211025843 l -11.759639703489638 -8.31405395311582" fill="#ffb610" stroke="none" /><path d="M 116.498646956653 112.99209946851258 l 49.495940869959 38.97629840553772 a84.0,84.0 0 0,0 -0.9043283517805842,1.1282886656869988 l -48.81769460612357 -39.822514904802965" fill="#4dd2ff" stroke="none" /><line stroke="#e1ed5e" stroke-width="0.3" x1="143.8653032363475" x2="146.44561519142675" y1="172.8068346515853" y2="177.08958963109032" /><path d="M 144.38136562736335 173.6633856474863 a86.0,86.0 0 0,1 -40.68145358897372,12.25698825130547" fill="none" id="id30" stroke="none" /><text fill="#e1ed5e" style="font-size:6.75px; font-family:Arial;" text-anchor="middle"><textPath startOffset="21.466115282336833" xlink:href="#id30">June</textPath></text><line stroke="#e1ed5e" stroke-width="0.3" x1="102.19456741930631" x2="102.32365962044197" y1="184.97166512339345" y2="189.96999836594603" /><path d="M 102.22038585953345 185.97133177190398 a86.0,86.0 0 0,1 -42.740103519485714,-10.115201625700543" fill="none" id="id31" stroke="none" /><text fill="#e1ed5e" style="font-size:6.75px; font-family:Arial;" text-anchor="middle"><textPath startOffset="22.20632615414155" xlink:href="#id31">July</textPath></text><line stroke="#e1ed5e" stroke-width="0.3" x1="58.666819895761336" x2="56.23545636021788" y1="174.27360380694188" y2="178.64263932499728" /><path d="M 58.180547188652646 175.14741091055294 a86.0,86.0 0 0,1 -31.652253787137756,-30.449443065178592" fill="none" id="id32" stroke="none" /><text fill="#e1ed5e" style="font-size:6.75px; font-family:Arial;" text-anchor="middle"><textPath startOffset="22.20632615414155" xlink:href="#id32">August</textPath></text><line stroke="#e1ed5e" stroke-width="0.3" x1="26.63291911575756" x2="22.317208475507996" y1="142.92168965132927" y2="145.44649492493687" /><path d="M 25.769776987707644 143.4266507060508 a86.0,86.0 0 0,1 -11.730757126820373,-40.83630448921669" fill="none" id="id33" stroke="none" /><text fill="#e1ed5e" style="font-size:6.75px; font-family:Arial;" text-anchor="middle"><textPath startOffset="21.46611528233685" xlink:href="#id33">September</textPath></text><line stroke="#e1ed5e" stroke-width="0.3" x1="15.007084014347285" x2="10.007500721073583" y1="101.09737516637583" y2="101.16192664675087" /><path d="M 14.007167355692545 101.11028546245083 a86.0,86.0 0 0,1 10.666146001902534,-42.60595125391555" fill="none" id="id34" stroke="none" /><text fill="#e1ed5e" style="font-size:6.75px; font-family:Arial;" text-anchor="middle"><textPath startOffset="22.20632615414155" xlink:href="#id34">October</textPath></text><line stroke="#e1ed5e" stroke-width="0.3" x1="26.266209847984243" x2="21.928928074336255" y1="57.711370442889674" y2="55.22380399835377" /><path d="M 25.398753493254645 57.213857153982495 a86.0,86.0 0 0,1 29.58750427330803,-30.492523968695096" fill="none" id="id35" stroke="none" /><text fill="#e1ed5e" style="font-size:6.75px; font-family:Arial;" text-anchor="middle"><textPath startOffset="21.46611528233685" xlink:href="#id35">November</textPath></text><line stroke="#e1ed5e" stroke-width="0.3" x1="56.762969772571076" x2="54.21961505331055" y1="26.818313649435495" y2="22.513508569990535" /><path d="M 56.25429882871897 25.957352633546506 a86.0,86.0 0 0,1 42.265352541879196,-11.944610805530505" fill="none" id="id36" stroke="none" /><text fill="#e1ed5e" style="font-size:6.75px; font-family:Arial;" text-anchor="middle"><textPath startOffset="22.20632615414155" xlink:href="#id36">December</textPath></text></svg>