<?xml version="1.0" encoding="utf-8" ?>
<svg baseProfile="full" height="200mm" version="1.1" viewBox="0,0,200,200" width="200mm" xmlns="http://www.w3.org/2000/svg" xmlns:ev="http://www.w3.org/2001/xml-events" xmlns:xlink="http://www.w3.org/1999/xlink"><defs /><rect fill="#1a1a1a" height="200" width="200" x="0" y="0" /><text alignment-baseline="middle" fill="#e1ed5e" style="dominant-baseline: central; font-size:9.0px; font-family:Arial;" text-anchor="middle" x="100.0" y="100.0">2024</text><line stroke="#e1ed5e" stroke-width="0.3" x1="100.0" x2="100.0" y1="15.0" y2="10.0" /><path d="M 100.0 14.0 a86.0,86.0 0 0,1 42.35913384403234,11.155469271406648" fill="none" id="id13" stroke="none" /><text fill="#e1ed5e" style="font-size:6.75px; font-family:Arial;" text-anchor="middle"><textPath startOffset="22.145653131862478" xlink:href="#id13">January</textPath></text><line stroke="#e1ed5e" stroke-width="0.3" x1="143.13028292997686" x2="145.6673583964461" y1="26.7553504044142" y2="22.446841604673864" /><path d="M 143.63769802327073 25.89364864446614 a86.0,86.0 0 0,1 29.32050498858742,28.57503671076993" fill="none" id="id14" stroke="none" /><text fill="#e1ed5e" style="font-size:6.75px; font-family:Arial;" text-anchor="middle"><textPath startOffset="20.669276256404974" xlink:href="#id14">February</textPath></text><line stroke="#e1ed5e" stroke-width="0.3" x1="172.87174338648825" x2="177.1583165268699" y1="56.24261187166439" y2="53.66864786411523" /><path d="M 173.72905801456457 55.72781907015455 a86.0,86.0 0 0,1 12.242430191666344,42.057860355516425" fill="none" id="id15" stroke="none" /><text fill="#e1ed5e" style="font-size:6.75px; font-family:Arial;" text-anchor="middle"><textPath startOffset="22.145653131862474" xlink:href="#id15">March</textPath></text><path d="M 120.65975698304385 96.23510406497455 l 2.385425007338236 -0.4347038990248864 a23.424710280726764,23.424710280726764 0 0,0 0.06869595513476633,0.3962200139776555 l -2.3925357799652365 0.3936908521266382" fill="#ff1c02" stroke="none" /><path d="M 120.77682067341334 96.94652285012252 l 3.224402350738077 -0.4738761071653637 a24.259038061205704,24.259038061205704 0 0,0 0.057015073876967005,0.41253267254646114 l -3.2320619411702562 0.41845512641881694" fill="#ff2803" stroke="none" /><path d="M 120.86939407059847 97.66154086499901 l 9.803314202079008 -1.0984818040996016 a30.86466581383383,30.86466581383383 0 0,0 0.05447996755103482,0.5270442658137818 l -9.820726562111709 0.9300330160028885" fill="#ff830c" stroke="none" /><path d="M 120.96210409425399 98.7389718711861 l 10.039284730157368 -0.603938439623084 a31.057434043135718,31.057434043135718 0 0,0 0.027446505304663273,0.5324548705176488 l -10.048172824918604 0.43151177572870447" fill="#ff850c" stroke="none" /><path d="M 120.98066250479742 99.09900007780936 l 2.8472348491650408 -0.12227251532069557 a23.849859093762834,23.849859093762834 0 0,0 0.014054736731732523,0.40918832488148593 l -2.8489142728936216 0.07337792587508968" fill="#ff2203" stroke="none" /><path d="M 120.99303781780057 99.45929381324524 l 21.248668829232614 -0.5472903348236269 a42.25571578952337,42.25571578952337 0 0,0 0.01245249464337111,0.7252953844889675 l -21.254932755474652 0.18244803436559295" fill="#ecff1a" stroke="none" /><line stroke="#e1ed5e" stroke-width="0.3" x1="184.99686870605535" x2="189.99668451229388" y1="99.2704041080226" y2="99.22748670261217" /><path d="M 185.99683186730306 99.26182062694052 a86.0,86.0 0 0,1 -10.086455211305974,41.156179273409016" fill="none" id="id16" stroke="none" /><text fill="#e1ed5e" style="font-size:6.75px; font-family:Arial;" text-anchor="middle"><textPath startOffset="21.40746469413373" xlink:href="#id16">April</textPath></text><path d="M 120.98066250479742 100.90099992219065 l 15.89806400835218 0.6827312736779327 a36.91271696492214,36.91271696492214 0 0,0 -0.03262101693849333,0.6328390138320594 l -15.884001401957114 -0.9555420808867228" fill="#ffd113" stroke="none" /><path d="M 120.96210409425399 101.26102812881392 l 29.893136175725097 1.798296841126132 a50.94717786285126,50.94717786285126 0 0,0 -0.06001101762598925,0.8725470256739389 l -29.857861196934042 -2.3111872909544147" fill="#8aff24" stroke="none" /><path d="M 120.93736805541906 101.62068470465957 l 15.232609063590157 1.1791002792745808 a36.27817581888474,36.27817581888474 0 0,0 -0.05339176141410228,0.6204931997023226 l -15.210123679478315 -1.4404145263525607" fill="#ffc912" stroke="none" /><path d="M 120.77682067341334 103.0534771498775 l 4.524131786821441 0.6648915756283598 a25.572728860524066,25.572728860524066 0 0,0 -0.06755889710164463,0.433776582875302 l -4.512051397581528 -0.7424563404351123" fill="#ff3b05" stroke="none" /><path d="M 120.7213421655516 103.40968896794604 l 11.870596218242891 1.953302090420226 a33.03023040648027,33.03023040648027 0 0,0 -0.09686536989793518,0.5586937126009538 l -11.835316030852722 -2.156788835941768" fill="#ff9f0e" stroke="none" /><path d="M 120.592083275326 104.11899336999214 l 13.421534229904314 2.6846827379695095 a34.687406711574134,34.687406711574134 0 0,0 -0.12180613221322763,0.5828864369565047 l -13.373470386866723 -2.914685626211423" fill="#ffb510" stroke="none" /><path d="M 120.43855184770803 104.8234425847677 l 13.681990712378294 3.2289125539920436 a35.05783575572475,35.05783575572475 0 0,0 -0.14325712386591358,0.5845379519863297 l -13.624546061996085 -3.4633063305864726" fill="#ffb911" stroke="none" /><path d="M 120.35273937422433 105.17358676015961 l 4.782412899383393 1.2156706575430913 a25.934503854269437,25.934503854269437 0 0,0 -0.11338382209200956,0.4305368406198572 l -4.760839596486654 -1.2975880025357518" fill="#ff4006" stroke="none" /><path d="M 120.16314734710363 105.8691983318838 l 13.53183679922747 3.9389204771525015 a35.09346308350996,35.09346308350996 0 0,0 -0.17333443499230586,0.5769739601196727 l -13.462226044231535 -4.170632040862897" fill="#ffba11" stroke="none" /><path d="M 119.94978838288452 106.5578916946017 l 24.689604138215767 8.115963278082551 a46.98933266617259,46.98933266617259 0 0,0 -0.2584739501680393,0.7641323058606938 l -24.54664476647536 -8.538597258417406" fill="#b6ff1f" stroke="none" /><path d="M 119.83427380445688 106.89939002012753 l 31.21157421039991 10.85700569341311 a54.04598216603806,54.04598216603806 0 0,0 -0.3123338669275455,0.8736534139728596 l -31.02060017342842 -11.391194063766891" fill="#6aff28" stroke="none" /><path d="M 119.71291397450082 107.23885506374661 l 13.261948649198235 4.869971241115157 a35.12784137309234,35.12784137309234 0 0,0 -0.2127230269757597,0.5642731020691436 l -13.176394938408034 -5.09691262337846" fill="#ffba11" stroke="none" /><path d="M 119.4528033332814 107.91128576633889 l 13.0269310940396 5.297939468036986 a35.06304008156984,35.06304008156984 0 0,0 -0.2315398795854788,0.5556114218716137 l -12.934065369917636 -5.5207833993498765" fill="#ffb911" stroke="none" /><path d="M 119.31412917781788 108.2440532568976 l 13.132747178163843 5.60558884893958 a35.279064212648045,35.279064212648045 0 0,0 -0.24252864506924723,0.5549530024881535 l -13.03458465107763 -5.830203921203578" fill="#ffbc11" stroke="none" /><path d="M 119.16976305983485 108.57439118712176 l 19.557523579123647 8.747831535284954 a42.424782031976505,42.424782031976505 0 0,0 -0.3030655419016456,0.6622529036772475 l -19.404473572366943 -9.08227342117689" fill="#eaff1a" stroke="none" /><path d="M 119.0197475246899 108.90220220490707 l 28.803951043324606 13.481703485025644 a52.802891764183855,52.802891764183855 0 0,0 -0.3912964380097497,0.8176590598343857 l -28.568275347354945 -13.974175046925133" fill="#77ff27" stroke="none" /><path d="M 118.70294669586154 109.54985784667822 l 12.549169318796407 6.407695270548969 a35.0904297050174,35.0904297050174 0 0,0 -0.2785376899061025,0.5341327469660078 l -12.437323559915356 -6.62217426061948" fill="#ffba11" stroke="none" /><line stroke="#e1ed5e" stroke-width="0.3" x1="174.33088141563837" x2="178.70328620479359" y1="141.23008692659167" y2="143.65538615756765" /><path d="M 175.20536237346943 141.71514677278685 a86.0,86.0 0 0,1 -30.301960400862466,31.631185727798858" fill="none" id="id17" stroke="none" /><text fill="#e1ed5e" style="font-size:6.75px; font-family:Arial;" text-anchor="middle"><textPath startOffset="22.145653131862474" xlink:href="#id17">May</textPath></text><path d="M 117.423217284605 111.72311816256416 l 11.674319645056478 7.85500326552599 a35.070920917849534,35.070920917849534 0 0,0 -0.3403720772569524,0.49661303286066005 l -11.537757830984205 -8.054251033456694" fill="#ffb911" stroke="none" /><path d="M 117.21940702142032 112.02048342749411 l 11.608621060079695 8.103719070881061 a35.157342465882756,35.157342465882756 0 0,0 -0.34970657223496904,0.4919060888023522 l -11.467799389314765 -8.301802386392918" fill="#ffbb11" stroke="none" /><path d="M 117.01052211995028 112.31430620078461 l 17.266583703237476 12.499675040178317 a42.31611570833117,42.31611570833117 0 0,0 -0.43101579471757545,0.5847557045145646 l -17.049465888936073 -12.79423705396176" fill="#ecff1a" stroke="none" /><path d="M 116.79662413953412 112.60449989151573 l 16.77527978915028 12.588482693067844 a41.97331419966674,41.97331419966674 0 0,0 -0.4374179436420744,0.5725941295321069 l -16.5567098681539 -12.874597735840828" fill="#f0ff19" stroke="none" /><path d="M 116.57777611688842 112.89097897827486 l 12.97400769109904 10.088666853182582 a37.43490415071539,37.43490415071539 0 0,0 -0.39883070115383684,0.503909562136795 l -12.798910559303641 -10.30989635923406" fill="#ffd714" stroke="none" /><path d="M 116.1254893667686 113.45245675266167 l 24.62451583574711 20.54264691143461 a53.06816368725896,53.06816368725896 0 0,0 -0.5895757663300879,0.6945187702696656 l -24.26824550590991 -20.962332464153832" fill="#74ff27" stroke="none" /><path d="M 115.89218393027572 113.72728997021213 l 10.662503655297542 9.210016705499875 a35.089478056862866,35.089478056862866 0 0,0 -0.39766226423815965,0.4524666588480241 l -10.502830327100796 -9.391695642159192" fill="#ffba11" stroke="none" /><path d="M 115.6541949942343 113.99807769240083 l 12.121314017577792 10.838953738249412 a37.260663321422,37.260663321422 0 0,0 -0.4304534566635055,0.4731437532199869 l -11.933462860072407 -11.045435067027071" fill="#ffd513" stroke="none" /><path d="M 115.41159269507618 114.26474011684316 l 13.12484707674062 12.148162511641571 a38.88405611703006,38.88405611703006 0 0,0 -0.4576175061902798,0.48597393332914074 l -12.914373736814081 -12.371677904915208" fill="#ffe915" stroke="none" /><path d="M 115.16444852881244 114.52719865689866 l 10.19477607011449 9.766364860005094 a35.11790854547944,35.11790854547944 0 0,0 -0.42076806219149937,0.43174509945158496 l -10.025621206772183 -9.939932651524417" fill="#ffba11" stroke="none" /><path d="M 114.91283532996324 114.78537596483092 l 15.362551191341431 15.231248123994673 a42.63328219483297,42.63328219483297 0 0,0 -0.5197364149169784,0.5152942500290991 l -15.098822856294488 -15.492722384252435" fill="#e8ff1a" stroke="none" /><path d="M 114.39649973595853 115.28858382429668 l 22.120482158741815 23.491185490947846 a53.26687971752666,53.26687971752666 0 0,0 -0.6710871689646395,0.6211482648439698 l -21.71396521846321 -23.867451501924194" fill="#72ff27" stroke="none" /><path d="M 114.13192950727249 115.5334660781643 l 9.794141006338572 10.765476646938149 a35.55406079030225,35.55406079030225 0 0,0 -0.4549818844191365,0.40684760660511576 l -9.607894095096057 -10.932019783426652" fill="#ffc011" stroke="none" /><path d="M 113.86319453409587 115.77377054828091 l 15.895029473992032 18.085625731087262 a45.077828391780706,45.077828391780706 0 0,0 -0.585626504428873,0.5058502264891268 l -15.582223489800302 -18.355820090041107" fill="#cbff1d" stroke="none" /><path d="M 113.59037401385872 116.0094264158162 l 14.660170985875283 17.269644558885474 a43.65306240942584,43.65306240942584 0 0,0 -0.5754422889219838,0.4800544237329351 l -14.361554362791404 -17.51876116653028" fill="#dcff1b" stroke="none" /><path d="M 113.31354834802062 116.24036423190432 l 9.30096303953707 11.34566259279926 a35.67078638425627,35.67078638425627 0 0,0 -0.4768831332477283,0.3841432953585992 l -9.10482913593409 -11.503654181951264" fill="#ffc111" stroke="none" /><path d="M 113.03279911837588 116.46651593811092 l 11.068082026922694 13.984160075303423 a38.83421354493658,38.83421354493658 0 0,0 -0.526277665847656,0.4092366961251436 l -10.826394416439806 -14.17209782304936" fill="#ffe915" stroke="none" /><path d="M 112.7482090630111 116.68781488649013 l 19.93101063663405 26.09033271739066 a53.8321587213172,53.8321587213172 0 0,0 -0.7391591460844303,0.5546788032665029 l -19.480198501638853 -26.428630547921177" fill="#6cff28" stroke="none" /><path d="M 111.8722381534696 117.32195027204791 l 12.672807074898737 18.490004253705106 a43.416072279943165,43.416072279943165 0 0,0 -0.6183765892942762,0.4160713665475309 l -12.353534197507457 -18.704825294309757" fill="#dfff1b" stroke="none" /><path d="M 111.5731344415666 117.5232005979908 l 12.345421536411399 18.69254169141138 a43.40135147255279,43.40135147255279 0 0,0 -0.625215828567172,0.40525734643389955 l -12.022720075587218 -18.901712879549173" fill="#dfff1b" stroke="none" /><path d="M 110.96478420261333 117.91015095944535 l 11.438917448505892 18.684611984114106 a42.90807059945337,42.90807059945337 0 0,0 -0.6314990048386644,0.3791970079654626 l -11.11648568710979 -18.87822299261549" fill="#e5ff1a" stroke="none" /><line stroke="#e1ed5e" stroke-width="0.3" x1="143.1302829299769" x2="145.66735839644613" y1="173.24464959558577" y2="177.55315839532614" /><path d="M 143.63769802327073 174.10635135553383 a86.0,86.0 0 0,1 -40.68552437913181,11.842963189579606" fill="none" id="id18" stroke="none" /><text fill="#e1ed5e" style="font-size:6.75px; font-family:Arial;" text-anchor="middle"><textPath startOffset="21.407464694133747" xlink:href="#id18">June</textPath></text><path d="M 110.65571695917076 118.09573695890943 l 13.861299948622314 23.539517682377895 a48.31747662183787,48.31747662183787 0 0,0 -0.7183371493008042,0.41473214651772927 l -13.455170331461112 -23.773996726171795" fill="#a7ff21" stroke="none" /><path d="M 110.34350942703117 118.27599006163325 l 19.806436571350563 34.99607560547949 a61.21219015969373,61.21219015969373 0 0,0 -0.918928509692275,0.5097141539608406 l -19.202763873502192 -35.33092267487347" fill="#31ff3f" stroke="none" /><path d="M 110.02825361518725 118.45085714620011 l 4.833361385772025 8.892840556982087 a31.121462120532662,31.121462120532662 0 0,0 -0.47158082456326716,0.25109022718436436 l -4.679991745422204 -8.974501251889018" fill="#ff860c" stroke="none" /><path d="M 109.71004243097381 118.62028667847754 l 0.21144619712865326 0.40547596322033197 a21.45729667725627,21.45729667725627 0 0,0 -0.32806446946107565,0.16751205565871607 l -0.20445450595399525 -0.40904597055188424" fill="#ff0000" stroke="none" /><path d="M 109.06512990194946 118.94263497670748 l 9.277445383327237 19.38629267462732 a42.491843487866014,42.491843487866014 0 0,0 -0.6606698317711331,0.30922684044432225 l -8.943286837684598 -19.542695746642174" fill="#e9ff1a" stroke="none" /><path d="M 108.73861861582097 119.09545874513695 l 8.90107525443866 19.450455819271916 a42.390403742394135,42.390403742394135 0 0,0 -0.6642911294838373,0.29712897277606964 l -8.565870722099197 -19.600388542957834" fill="#ebff1a" stroke="none" /><path d="M 108.07796709384702 119.3841803445677 l 24.233901281541076 58.15254103370309 a84.0,84.0 0 0,0 -1.3357821552382365,0.5432509736828348 l -23.232064665112397 -58.55997926396521" fill="#4dd2ff" stroke="none" /><path d="M 107.74402155503746 119.51999308798841 l 9.576412276818571 24.138814713090174 a46.969020925874354,46.969020925874354 0 0,0 -0.7520136970857527,0.29089505312694913 l -9.16062631723929 -24.29964965435516" fill="#b6ff1f" stroke="none" /><path d="M 107.06938296918513 119.77432235084164 l 7.2520950986058805 20.28540069534831 a42.542756664133336,42.542756664133336 0 0,0 -0.6897887183538373,0.2399443229596665 l -6.902800608207022 -20.40690345087657" fill="#e9ff1a" stroke="none" /><path d="M 106.72888874123015 119.89276391827305 l 4.402982690948465 13.016635967036079 a34.74114509330023,34.74114509330023 0 0,0 -0.566573917263634,0.18624410019250004 l -4.178886036037097 -13.090300988630599" fill="#ffb510" stroke="none" /><path d="M 106.0420521117495 120.11202640906438 l 3.941664433871434 13.12051894347825 a34.699807876587855,34.699807876587855 0 0,0 -0.5719519556553687,0.1664868785741605 l -3.7158524658344585 -13.186249516354929" fill="#ffb510" stroke="none" /><path d="M 105.69591212413111 120.21278271476187 l 8.642235819331265 30.668246099832913 a52.86266716389024,52.86266716389024 0 0,0 -0.8755532778952284,0.23863593930283247 l -8.114501140501343 -30.812082533279888" fill="#76ff27" stroke="none" /><path d="M 104.9986988182912 120.39639698878246 l 5.117090605845638 20.879475883301122 a42.49737494276422,42.49737494276422 0 0,0 -0.7100458294226908,0.16756888238919804 l -4.757912622683068 -20.964240909336546" fill="#e9ff1a" stroke="none" /><path d="M 104.29559338865022 120.5559693870025 l 4.380542898156839 20.96248354206031 a42.415295289436045,42.415295289436045 0 0,0 -0.7139979024789436,0.14281957717328153 l -4.020048510146936 -21.034592515896453" fill="#eaff1a" stroke="none" /><path d="M 103.2317021107853 120.74984581791261 l 5.2921423688689675 33.97935033491987 a55.38899562411786,55.38899562411786 0 0,0 -0.9407554364156481,0.13825865246043603 l -4.708061826845634 -34.06519006067919" fill="#5cff2a" stroke="none" /><path d="M 102.875027216393 120.80226474461374 l 0.300945292117612 2.1774902180334523 a23.198188280943906,23.198188280943906 0 0,0 -0.3949460382090931,0.05113367174131444 l -0.26352143201774353 -2.1823354859751616" fill="#ff1902" stroke="none" /><path d="M 101.80034050326958 120.92268563240118 l 1.8244659481541492 21.203059871688115 a42.28141028969567,42.28141028969567 0 0,0 -0.7236785620355239,0.05601729756464996 l -1.4602183913433895 -21.23125493624782" fill="#ecff1a" stroke="none" /><line stroke="#e1ed5e" stroke-width="0.3" x1="101.45913802915013" x2="101.54496967792366" y1="184.9874750549273" y2="189.98673829345242" /><path d="M 101.47630435890484 185.9873277026323 a86.0,86.0 0 0,1 -42.54439059252881,-10.42667462771756" fill="none" id="id19" stroke="none" /><text fill="#e1ed5e" style="font-size:6.75px; font-family:Arial;" text-anchor="middle"><textPath startOffset="22.145653131862474" xlink:href="#id19">July</textPath></text><path d="M 99.63950707515114 120.99690560180557 l -0.36456253691899604 21.233940102576035 a42.23706943349556,42.23706943349556 0 0,0 -0.7248417845953022,-0.01866935318035132 l 0.7290176355850423 -21.224553032045637" fill="#ecff1a" stroke="none" /><path d="M 99.27912038922189 120.98762331915562 l -0.47065312809427484 13.702552296857032 a34.71063287434562,34.71063287434562 0 0,0 -0.5953274187895693,-0.025565920899053598 l 0.7058063074846829 -13.69245380753215" fill="#ffb510" stroke="none" /><path d="M 98.91894614982273 120.97215588758144 l -1.1045591920545135 21.428153240497466 a42.45660276714359,42.45660276714359 0 0,0 -0.7275356330964681,-0.043766737056732306 l 1.4722391772834278 -21.40603452561604" fill="#eaff1a" stroke="none" /><path d="M 98.55909050195518 120.95050786540614 l -1.9359056426682582 28.14764317151018 a49.2141373564385,49.2141373564385 0 0,0 -0.8423374695854425,-0.06520224746039363 l 2.418812107028937 -28.11026315705473" fill="#9dff22" stroke="none" /><path d="M 98.19965949673042 120.92268563240118 l -1.8160677641908831 21.105460243935774 a42.183450007788785,42.183450007788785 0 0,0 -0.7209361250343703,-0.06827340059521837 l 2.1781034526102685 -21.07117508783537" fill="#edff1a" stroke="none" /><path d="M 97.84075906011543 120.88869738790638 l -1.3911159194762523 13.457784602301956 a34.52949259593189,34.52949259593189 0 0,0 -0.5890798825268293,-0.06600762954018412 l 1.621931703603881 -13.431921212254801" fill="#ffb310" stroke="none" /><line stroke="#e1ed5e" stroke-width="0.3" x1="58.13341422392154" x2="55.67067388415222" y1="173.97424548756322" y2="178.32567169271397" /><path d="M 57.64086615596768 174.84453072859336 a86.0,86.0 0 0,1 -31.369924170532247,-30.572349798747897" fill="none" id="id20" stroke="none" /><text fill="#e1ed5e" style="font-size:6.75px; font-family:Arial;" text-anchor="middle"><textPath startOffset="22.145653131862474" xlink:href="#id20">August</textPath></text><line stroke="#e1ed5e" stroke-width="0.3" x1="26.387840678322732" x2="22.057713659400548" y1="142.50000000000003" y2="145.00000000000006" /><path d="M 25.521815274538298 143.00000000000003 a86.0,86.0 0 0,1 -11.493303480769221,-40.785679425670985" fill="none" id="id21" stroke="none" /><text fill="#e1ed5e" style="font-size:6.75px; font-family:Arial;" text-anchor="middle"><textPath startOffset="21.40746469413373" xlink:href="#id21">September</textPath></text><line stroke="#e1ed5e" stroke-width="0.3" x1="15.003131293944662" x2="10.003315487706104" y1="100.72959589197737" y2="100.7725132973878" /><path d="M 14.003168132696942 100.73817937305945 a86.0,86.0 0 0,1 10.791469493833604,-42.45332614584628" fill="none" id="id22" stroke="none" /><text fill="#e1ed5e" style="font-size:6.75px; font-family:Arial;" text-anchor="middle"><textPath startOffset="22.145653131862435" xlink:href="#id22">October</textPath></text><line stroke="#e1ed5e" stroke-width="0.3" x1="26.387840678322718" x2="22.05771365940052" y1="57.49999999999999" y2="54.99999999999999" /><path d="M 25.521815274538284 56.99999999999999 a86.0,86.0 0 0,1 29.574782752854787,-30.34633250058573" fill="none" id="id23" stroke="none" /><text fill="#e1ed5e" style="font-size:6.75px; font-family:Arial;" text-anchor="middle"><textPath startOffset="21.40746469413373" xlink:href="#id23">November</textPath></text><line stroke="#e1ed5e" stroke-width="0.3" x1="56.869717070023135" x2="54.33264160355391" y1="26.7553504044142" y2="22.446841604673864" /><path d="M 56.362301976729285 25.89364864446614 a86.0,86.0 0 0,1 42.16139366436587,-11.88097634709845" fill="none" id="id24" stroke="none" /><text fill="#e1ed5e" style="font-size:6.75px; font-family:Arial;" text-anchor="middle"><textPath startOffset="22.145653131862474" xlink:href="#id24">December</textPath></text></svg>