<?xml version="1.0" encoding="utf-8" ?>
<svg baseProfile="full" height="200mm" version="1.1" viewBox="0,0,200,200" width="200mm" xmlns="http://www.w3.org/2000/svg" xmlns:ev="http://www.w3.org/2001/xml-events" xmlns:xlink="http://www.w3.org/1999/xlink"><defs /><rect fill="#1a1a1a" height="200" width="200" x="0" y="0" /><text alignment-baseline="middle" fill="#e1ed5e" style="dominant-baseline: central; font-size:9.0px; font-family:Arial;" text-anchor="middle" x="100.0" y="100.0">2024</text><line stroke="#e1ed5e" stroke-width="0.3" x1="100.0" x2="100.0" y1="15.0" y2="10.0" /><path d="M 100.0 14.0 a86.0,86.0 0 0,1 42.35913384403234,11.155469271406648" fill="none" id="id13" stroke="none" /><text fill="#e1ed5e" style="font-size:6.75px; font-family:Arial;" text-anchor="middle"><textPath startOffset="22.145653131862478" xlink:href="#id13">January</textPath></text><line stroke="#e1ed5e" stroke-width="0.3" x1="143.13028292997686" x2="145.6673583964461" y1="26.7553504044142" y2="22.446841604673864" /><path d="M 143.63769802327073 25.89364864446614 a86.0,86.0 0 0,1 29.32050498858742,28.57503671076993" fill="none" id="id14" stroke="none" /><text fill="#e1ed5e" style="font-size:6.75px; font-family:Arial;" text-anchor="middle"><textPath startOffset="20.669276256404974" xlink:href="#id14">February</textPath></text><line stroke="#e1ed5e" stroke-width="0.3" x1="172.87174338648825" x2="177.1583165268699" y1="56.24261187166439" y2="53.66864786411523" /><path d="M 173.72905801456457 55.72781907015455 a86.0,86.0 0 0,1 12.242430191666344,42.057860355516425" fill="none" id="id15" stroke="none" /><text fill="#e1ed5e" style="font-size:6.75px; font-family:Arial;" text-anchor="middle"><textPath startOffset="22.145653131862474" xlink:href="#id15">March</textPath></text><path d="M 120.65975698304385 96.23510406497455 l 4.547656495946312 -0.8287345039698438 a25.62255129589633,25.62255129589633 0 0,0 0.07514140466058873,0.4333956540310416 l -4.561212718099135 0.7505458170182097" fill="#ff0000" stroke="none" /><path d="M 120.77682067341334 96.94652285012252 l 6.147111835739797 -0.9034137524318945 a27.21314254859611,27.21314254859611 0 0,0 0.06395799078751793,0.46276816070101856 l -6.161714343082528 0.7977572835307902" fill="#ff1902" stroke="none" /><path d="M 120.86939407059847 97.66154086499901 l 18.689376264498055 -2.094183592745428 a39.80633909287258,39.80633909287258 0 0,0 0.07026313115411016,0.6797320563417268 l -18.72257178813383 1.7730470141207697" fill="#ffcd13" stroke="none" /><path d="M 120.96210409425399 98.7389718711861 l 19.13923861672721 -1.151369068260196 a40.17383909287257,40.17383909287257 0 0,0 0.03550298090433901,0.6887483448466049 l -19.15618318708812 0.8226489300368606" fill="#ffd213" stroke="none" /><path d="M 120.98066250479742 99.09900007780936 l 5.428066704028703 -0.2331045398045545 a26.433069654427644,26.433069654427644 0 0,0 0.015577024314650354,0.45350806689669254 l -5.4312684153402015 0.13989020834374205" fill="#ff0d01" stroke="none" /><path d="M 120.99303781780057 99.45929381324524 l 40.50919502151841 -1.0433731677469544 a61.52262958963283,61.52262958963283 0 0,0 0.01813033340216077,1.0560010272988536 l -40.52113678651923 0.34782522447903447" fill="#2fff2f" stroke="none" /><line stroke="#e1ed5e" stroke-width="0.3" x1="184.99686870605535" x2="189.99668451229388" y1="99.2704041080226" y2="99.22748670261217" /><path d="M 185.99683186730306 99.26182062694052 a86.0,86.0 0 0,1 -10.086455211305974,41.156179273409016" fill="none" id="id16" stroke="none" /><text fill="#e1ed5e" style="font-size:6.75px; font-family:Arial;" text-anchor="middle"><textPath startOffset="21.40746469413373" xlink:href="#id16">April</textPath></text><path d="M 120.98066250479742 100.90099992219065 l 30.308617474094223 1.301582444292245 a51.33655237580994,51.33655237580994 0 0,0 -0.045367848327354306,0.88012413743259 l -30.281808036310295 -1.8216783751015657" fill="#9fff22" stroke="none" /><path d="M 120.96210409425399 101.26102812881392 l 56.989305677413 3.4283351126231394 a78.09233261339094,78.09233261339094 0 0,0 -0.09198547486835308,1.337448616549156 l -56.92205624137958 -4.406127153326639" fill="#45fff1" stroke="none" /><path d="M 120.93736805541906 101.62068470465957 l 29.039971219025638 2.247877433966567 a50.126841252699776,50.126841252699776 0 0,0 -0.07377328898697098,0.857357444738638 l -28.997104307340926 -2.7460559260808624" fill="#aeff20" stroke="none" /><path d="M 120.77682067341334 103.0534771498775 l 8.624960854172201 1.2675722287242506 a29.717607991360694,29.717607991360694 0 0,0 -0.07850897850383752,0.5040839605357641 l -8.601930383530096 -1.415444371191465" fill="#ff3e05" stroke="none" /><path d="M 120.7213421655516 103.40968896794604 l 22.630513990831783 3.7238424652708044 a43.93484611231101,43.93484611231101 0 0,0 -0.12884454839415585,0.7431411160311756 l -22.563254624945394 -4.111776614222568" fill="#faff18" stroke="none" /><path d="M 120.592083275326 104.11899336999214 l 25.587275700734523 5.118171753596786 a47.09414416846652,47.09414416846652 0 0,0 -0.16537285703572036,0.7913689865640487 l -25.495645132874436 -5.556657191446244" fill="#d2ff1c" stroke="none" /><path d="M 120.43855184770803 104.8234425847677 l 26.083818920827536 6.155710242758609 a47.80034287257019,47.80034287257019 0 0,0 -0.1953269359649712,0.7970005542174378 l -25.974304458346268 -6.602566621584146" fill="#caff1d" stroke="none" /><path d="M 120.35273937422433 105.17358676015961 l 9.117356874046761 2.3175964642359705 a30.407308315334774,30.407308315334774 0 0,0 -0.132938607798168,0.5047895470606035 l -9.076228785443861 -2.4737665156693773" fill="#ff4906" stroke="none" /><path d="M 120.16314734710363 105.8691983318838 l 25.797560322702886 7.509293832266173 a47.86826403887689,47.86826403887689 0 0,0 -0.23643202386429657,0.7870053120959347 l -25.664851978834957 -7.951036747952831" fill="#c9ff1d" stroke="none" /><path d="M 119.94978838288452 106.5578916946017 l 47.06911275604789 15.472552274287635 a70.54696004319653,70.54696004319653 0 0,0 -0.38805725470195523,1.1472223202709488 l -46.79657007977357 -16.278276269032744" fill="#3bff9e" stroke="none" /><path d="M 119.83427380445688 106.89939002012753 l 59.50282141337066 20.698170060382587 a84.0,84.0 0 0,0 -0.48543931982422706,1.3578601744763141 l -59.13874192350249 -21.716565191239823" fill="#4dd2ff" stroke="none" /><path d="M 119.71291397450082 107.23885506374661 l 25.283036246329207 9.284281116194727 a47.93380399568034,47.93380399568034 0 0,0 -0.29027186077634776,0.7699805970809023 l -25.119933701738418 -9.716929993469789" fill="#c8ff1d" stroke="none" /><path d="M 119.4528033332814 107.91128576633889 l 24.834990674537718 10.100174502586025 a47.81026457883369,47.81026457883369 0 0,0 -0.31571657442652107,0.7576048460403356 l -24.657948255574713 -10.52501185806764" fill="#caff1d" stroke="none" /><path d="M 119.31412917781788 108.2440532568976 l 25.036722106405357 10.686687891701832 a48.222100431965444,48.222100431965444 0 0,0 -0.33150654477861213,0.7585518498931815 l -24.84958167960978 -11.114901811370858" fill="#c5ff1e" stroke="none" /><path d="M 119.16976305983485 108.57439118712176 l 37.28513739715885 16.67716770994754 a61.84494330453563,61.84494330453563 0 0,0 -0.4417953459923157,0.9654025623587947 l -36.993357586311475 -17.314759254521025" fill="#30ff34" stroke="none" /><path d="M 119.0197475246899 108.90220220490707 l 54.912845580192716 25.701984443649096 a81.63012958963283,81.63012958963283 0 0,0 -0.604921016169867,1.2640522665406695 l -54.46354530606293 -26.640849212254867" fill="#4ae9ff" stroke="none" /><path d="M 118.70294669586154 109.54985784667822 l 23.924169150484044 12.21585123469137 a47.86248110151188,47.86248110151188 0 0,0 -0.3799185427838578,0.7285438999256193 l -23.710942538725234 -12.624741377721492" fill="#c9ff1d" stroke="none" /><line stroke="#e1ed5e" stroke-width="0.3" x1="174.33088141563837" x2="178.70328620479359" y1="141.23008692659167" y2="143.65538615756765" /><path d="M 175.20536237346943 141.71514677278685 a86.0,86.0 0 0,1 -30.301960400862466,31.631185727798858" fill="none" id="id17" stroke="none" /><text fill="#e1ed5e" style="font-size:6.75px; font-family:Arial;" text-anchor="middle"><textPath startOffset="22.145653131862474" xlink:href="#id17">May</textPath></text><path d="M 117.423217284605 111.72311816256416 l 22.256325563064255 14.975049107080835 a47.82528887688984,47.82528887688984 0 0,0 -0.4641564148991548,0.6772180808203822 l -21.99597941134978 -15.354901922971262" fill="#c9ff1d" stroke="none" /><path d="M 117.21940702142032 112.02048342749411 l 22.13107551503296 15.449209495434275 a47.9900458963283,47.9900458963283 0 0,0 -0.47735219088558106,0.671455636933208 l -21.862608225617418 -15.826842359076986" fill="#c7ff1e" stroke="none" /><path d="M 117.01052211995028 112.31430620078461 l 32.9176106141553 23.82981155090439 a61.63777807775379,61.63777807775379 0 0,0 -0.6278188689605586,0.8517568718499645 l -32.50368972561092 -24.391374732023234" fill="#30ff31" stroke="none" /><path d="M 116.79662413953412 112.60449989151573 l 31.98097188960549 23.99911752292631 a60.9842494600432,60.9842494600432 0 0,0 -0.6355372574696325,0.8319386710477952 l -31.564282654781554 -24.54457710721498" fill="#35ff2f" stroke="none" /><path d="M 116.57777611688842 112.89097897827486 l 24.734095674095517 19.233382399016897 a52.33206803455724,52.33206803455724 0 0,0 -0.557544779680006,0.7044396155747271 l -24.40028446377395 -19.65514195850631" fill="#94ff23" stroke="none" /><path d="M 116.1254893667686 113.45245675266167 l 46.945026171635845 39.16321049009217 a82.13585313174946,82.13585313174946 0 0,0 -0.9125114793627782,1.0749362282118742 l -46.26582012876595 -39.9633135007536" fill="#4be4ff" stroke="none" /><path d="M 115.89218393027572 113.72728997021213 l 20.32736466746937 17.558293457012326 a47.860666846652265,47.860666846652265 0 0,0 -0.5423956752889224,0.6171467122779773 l -20.022957928221864 -17.904652447101597" fill="#c9ff1d" stroke="none" /><path d="M 115.6541949942343 113.99807769240083 l 23.10849104954762 20.663755190532488 a51.999889308855295,51.999889308855295 0 0,0 -0.6007282239188593,0.6603055501824789 l -22.75036512478688 -21.057398316272636" fill="#98ff23" stroke="none" /><path d="M 115.41159269507618 114.26474011684316 l 25.02166108061522 23.159675944507608 a55.0947813174946,55.0947813174946 0 0,0 -0.6483977997235849,0.6885759937746108 l -24.620407447155376 -23.585793398226716" fill="#74ff27" stroke="none" /><path d="M 115.16444852881244 114.52719865689866 l 19.43567266937782 18.618934764561363 a47.91486771058315,47.91486771058315 0 0,0 -0.5740958636712252,0.5890729312118503 l -19.113190004555786 -18.94983038784095" fill="#c8ff1d" stroke="none" /><path d="M 114.91283532996324 114.78537596483092 l 29.287697372456282 29.03737667684848 a62.24243520518359,62.24243520518359 0 0,0 -0.758788872538768,0.7523035365296611 l -28.78491657978755 -29.535860223606804" fill="#30ff39" stroke="none" /><path d="M 114.39649973595853 115.28858382429668 l 42.171250017587674 44.78440611914025 a82.51469222462204,82.51469222462204 0 0,0 -1.0395681424678982,0.9622087528170694 l -41.39625210380581 -45.5017326180897" fill="#4be0ff" stroke="none" /><path d="M 114.13192950727249 115.5334660781643 l 18.671888167798617 20.523675929781483 a48.74636339092873,48.74636339092873 0 0,0 -0.623802507539005,0.5578080487985234 l -18.316820633436233 -20.841179508463394" fill="#beff1f" stroke="none" /><line stroke="#e1ed5e" stroke-width="0.3" x1="143.1302829299769" x2="145.66735839644613" y1="173.24464959558577" y2="177.55315839532614" /><path d="M 143.63769802327073 174.10635135553383 a86.0,86.0 0 0,1 -40.68552437913181,11.842963189579606" fill="none" id="id18" stroke="none" /><text fill="#e1ed5e" style="font-size:6.75px; font-family:Arial;" text-anchor="middle"><textPath startOffset="21.407464694133747" xlink:href="#id18">June</textPath></text><line stroke="#e1ed5e" stroke-width="0.3" x1="101.45913802915013" x2="101.54496967792366" y1="184.9874750549273" y2="189.98673829345242" /><path d="M 101.47630435890484 185.9873277026323 a86.0,86.0 0 0,1 -42.54439059252881,-10.42667462771756" fill="none" id="id19" stroke="none" /><text fill="#e1ed5e" style="font-size:6.75px; font-family:Arial;" text-anchor="middle"><textPath startOffset="22.145653131862474" xlink:href="#id19">July</textPath></text><line stroke="#e1ed5e" stroke-width="0.3" x1="58.13341422392154" x2="55.67067388415222" y1="173.97424548756322" y2="178.32567169271397" /><path d="M 57.64086615596768 174.84453072859336 a86.0,86.0 0 0,1 -31.369924170532247,-30.572349798747897" fill="none" id="id20" stroke="none" /><text fill="#e1ed5e" style="font-size:6.75px; font-family:Arial;" text-anchor="middle"><textPath startOffset="22.145653131862474" xlink:href="#id20">August</textPath></text><line stroke="#e1ed5e" stroke-width="0.3" x1="26.387840678322732" x2="22.057713659400548" y1="142.50000000000003" y2="145.00000000000006" /><path d="M 25.521815274538298 143.00000000000003 a86.0,86.0 0 0,1 -11.493303480769221,-40.785679425670985" fill="none" id="id21" stroke="none" /><text fill="#e1ed5e" style="font-size:6.75px; font-family:Arial;" text-anchor="middle"><textPath startOffset="21.40746469413373" xlink:href="#id21">September</textPath></text><line stroke="#e1ed5e" stroke-width="0.3" x1="15.003131293944662" x2="10.003315487706104" y1="100.72959589197737" y2="100.7725132973878" /><path d="M 14.003168132696942 100.73817937305945 a86.0,86.0 0 0,1 10.791469493833604,-42.45332614584628" fill="none" id="id22" stroke="none" /><text fill="#e1ed5e" style="font-size:6.75px; font-family:Arial;" text-anchor="middle"><textPath startOffset="22.145653131862435" xlink:href="#id22">October</textPath></text><line stroke="#e1ed5e" stroke-width="0.3" x1="26.387840678322718" x2="22.05771365940052" y1="57.49999999999999" y2="54.99999999999999" /><path d="M 25.521815274538284 56.99999999999999 a86.0,86.0 0 0,1 29.574782752854787,-30.34633250058573" fill="none" id="id23" stroke="none" /><text fill="#e1ed5e" style="font-size:6.75px; font-family:Arial;" text-anchor="middle"><textPath startOffset="21.40746469413373" xlink:href="#id23">November</textPath></text><line stroke="#e1ed5e" stroke-width="0.3" x1="56.869717070023135" x2="54.33264160355391" y1="26.7553504044142" y2="22.446841604673864" /><path d="M 56.362301976729285 25.89364864446614 a86.0,86.0 0 0,1 42.16139366436587,-11.88097634709845" fill="none" id="id24" stroke="none" /><text fill="#e1ed5e" style="font-size:6.75px; font-family:Arial;" text-anchor="middle"><textPath startOffset="22.145653131862474" xlink:href="#id24">December</textPath></text></svg>