<?xml version="1.0" encoding="utf-8" ?>
<svg baseProfile="full" height="200mm" version="1.1" viewBox="0,0,200,200" width="200mm" xmlns="http://www.w3.org/2000/svg" xmlns:ev="http://www.w3.org/2001/xml-events" xmlns:xlink="http://www.w3.org/1999/xlink"><defs /><rect fill="#1a1a1a" height="200" width="200" x="0" y="0" /><text alignment-baseline="middle" fill="#e1ed5e" style="dominant-baseline: central; font-size:9.0px; font-family:Arial;" text-anchor="middle" x="100.0" y="100.0">2024</text><line stroke="#e1ed5e" stroke-width="0.3" x1="100.0" x2="100.0" y1="15.0" y2="10.0" /><path d="M 100.0 14.0 a86.0,86.0 0 0,1 42.35913384403234,11.155469271406648" fill="none" id="id13" stroke="none" /><text fill="#e1ed5e" style="font-size:6.75px; font-family:Arial;" text-anchor="middle"><textPath startOffset="22.145653131862478" xlink:href="#id13">January</textPath></text><line stroke="#e1ed5e" stroke-width="0.3" x1="143.13028292997686" x2="145.6673583964461" y1="26.7553504044142" y2="22.446841604673864" /><path d="M 143.63769802327073 25.89364864446614 a86.0,86.0 0 0,1 29.32050498858742,28.57503671076993" fill="none" id="id14" stroke="none" /><text fill="#e1ed5e" style="font-size:6.75px; font-family:Arial;" text-anchor="middle"><textPath startOffset="20.669276256404974" xlink:href="#id14">February</textPath></text><line stroke="#e1ed5e" stroke-width="0.3" x1="172.87174338648825" x2="177.1583165268699" y1="56.24261187166439" y2="53.66864786411523" /><path d="M 173.72905801456457 55.72781907015455 a86.0,86.0 0 0,1 12.242430191666344,42.057860355516425" fill="none" id="id15" stroke="none" /><text fill="#e1ed5e" style="font-size:6.75px; font-family:Arial;" text-anchor="middle"><textPath startOffset="22.145653131862474" xlink:href="#id15">March</textPath></text><path d="M 120.65975698304385 96.23510406497455 l 2.1931159749393667 -0.3996587871708887 a23.22923413433788,23.22923413433788 0 0,0 0.06812269636565803,0.3929136097350286 l -2.199653488797259 0.36195214451526747" fill="#ff1a02" stroke="none" /><path d="M 120.77682067341334 96.94652285012252 l 2.9644563477291657 -0.43567299645529306 a23.996299784305982,23.996299784305982 0 0,0 0.0563975703209748,0.40806472442435376 l -2.971498434605353 0.38471996383085366" fill="#ff2503" stroke="none" /><path d="M 120.86939407059847 97.66154086499901 l 9.012987169074698 -1.00992401158703 a30.06939271501048,30.06939271501048 0 0,0 0.053076211784507527,0.513464202157206 l -9.02899577334087 0.8550552871468926" fill="#ff780b" stroke="none" /><path d="M 120.96210409425399 98.7389718711861 l 9.229934142109496 -0.5552499180409299 a30.246620287389497,30.246620287389497 0 0,0 0.02672996175450153,0.5185541170706589 l -9.23810569332057 0.3967240075935404" fill="#ff7b0b" stroke="none" /><path d="M 120.98066250479742 99.09900007780936 l 2.617695468479897 -0.11241510666690722 a23.620108150803535,23.620108150803535 0 0,0 0.01391934435878535,0.40524652366916586 l -2.6192394998355306 0.06746231843362142" fill="#ff2003" stroke="none" /><path d="M 120.99303781780057 99.45929381324524 l 19.535636170589772 -0.5031686900821616 a40.54211501655679,40.54211501655679 0 0,0 0.011947507234033851,0.6958823995645106 l -19.541395109422474 0.16773937454858456" fill="#fffe18" stroke="none" /><line stroke="#e1ed5e" stroke-width="0.3" x1="184.99686870605535" x2="189.99668451229388" y1="99.2704041080226" y2="99.22748670261217" /><path d="M 185.99683186730306 99.26182062694052 a86.0,86.0 0 0,1 -10.086455211305974,41.156179273409016" fill="none" id="id16" stroke="none" /><text fill="#e1ed5e" style="font-size:6.75px; font-family:Arial;" text-anchor="middle"><textPath startOffset="21.40746469413373" xlink:href="#id16">April</textPath></text><path d="M 120.98066250479742 100.90099992219065 l 14.616388291422801 0.6276906036817896 a35.62985995078531,35.62985995078531 0 0,0 -0.031487312789118725,0.6108454562056896 l -14.60345938917711 -0.8785078532642099" fill="#ffc111" stroke="none" /><path d="M 120.96210409425399 101.26102812881392 l 27.483200807546822 1.6533211137739645 a48.53288574292918,48.53288574292918 0 0,0 -0.05716720697659556,0.8311986429623995 l -27.45076963940516 -2.1248631808907077" fill="#a4ff21" stroke="none" /><path d="M 120.93736805541906 101.62068470465957 l 14.004581227494825 1.0840431581699643 a35.04647446608136,35.04647446608136 0 0,0 -0.051579026807747785,0.5994264758048986 l -13.983908577989336 -1.3242906813505202" fill="#ffb911" stroke="none" /><path d="M 120.77682067341334 103.0534771498775 l 4.159403738908747 0.6112891126853196 a25.204082996627882,25.204082996627882 0 0,0 -0.06658499603219895,0.4275234393799729 l -4.148297250738281 -0.6826007339967431" fill="#ff3605" stroke="none" /><path d="M 120.7213421655516 103.40968896794604 l 10.913608316420207 1.7958300953519102 a32.06037305951332,32.06037305951332 0 0,0 -0.09402113933986579,0.5422889465668673 l -10.881172359588108 -1.9829120748393654" fill="#ff930d" stroke="none" /><path d="M 120.592083275326 104.11899336999214 l 12.339512261860436 2.46824804056816 a33.58395054227299,33.58395054227299 0 0,0 -0.11793130440707314,0.5643439832006001 l -12.295323246628998 -2.679708475054169" fill="#ffa70f" stroke="none" /><path d="M 120.43855184770803 104.8234425847677 l 12.578971172005591 2.9686029458305816 a33.92451620743081,33.92451620743081 0 0,0 -0.1386260308332213,0.5656415120485725 l -12.526157614656075 -3.184100282487254" fill="#ffab0f" stroke="none" /><path d="M 120.35273937422433 105.17358676015961 l 4.396862653878701 1.1176652928183055 a25.53669228666039,25.53669228666039 0 0,0 -0.11164461796991096,0.4239327992839272 l -4.37702855510406 -1.192978596475036" fill="#ff3b05" stroke="none" /><path d="M 120.16314734710363 105.8691983318838 l 12.44092241984708 3.6213712004713896 a33.957271318771454,33.957271318771454 0 0,0 -0.16772253065800832,0.5582937557637632 l -12.376923569185442 -3.834402559825876" fill="#ffac0f" stroke="none" /><path d="M 119.94978838288452 106.5578916946017 l 22.699168946363116 7.461667695454117 a44.89411550262782,44.89411550262782 0 0,0 -0.2469488012460765,0.7300602509576682 l -22.567734723544675 -7.850229620885946" fill="#cdff1d" stroke="none" /><path d="M 119.83427380445688 106.89939002012753 l 28.6953485409352 9.981731789087329 a51.381869550688094,51.381869550688094 0 0,0 -0.29693785483313323,0.8305880280121017 l -28.519770516058124 -10.472854773480352" fill="#85ff25" stroke="none" /><path d="M 119.71291397450082 107.23885506374661 l 12.19279220763957 4.477362186415002 a33.98887808731051,33.98887808731051 0 0,0 -0.20582582782274386,0.5459774618792153 l -12.114135696002386 -4.686007928488376" fill="#ffac0f" stroke="none" /><path d="M 119.4528033332814 107.91128576633889 l 11.976721380418414 4.870828320265946 a33.929300969104105,33.929300969104105 0 0,0 -0.22405319796942452,0.5376461114238282 l -11.891342337912505 -5.075706941131052" fill="#ffab0f" stroke="none" /><path d="M 119.31412917781788 108.2440532568976 l 12.074006746248195 5.153675515152428 a34.12790959078895,34.12790959078895 0 0,0 -0.23461494392848414,0.5368449055761105 l -11.983757920302745 -5.360182490504384" fill="#ffae10" stroke="none" /><path d="M 119.16976305983485 108.57439118712176 l 17.98082826317401 8.04259577521546 a40.69755141720084,40.69755141720084 0 0,0 -0.29072690261620265,0.6352907500686971 l -17.840116895702753 -8.350075507498847" fill="#ffff18" stroke="none" /><path d="M 119.0197475246899 108.90220220490707 l 26.481823985309433 12.394830770805736 a50.23899504815141,50.23899504815141 0 0,0 -0.3722966518448395,0.7779568142129529 l -26.26514807550468 -12.847600087083794" fill="#92ff23" stroke="none" /><path d="M 118.70294669586154 109.54985784667822 l 11.53747597204131 5.891117439095321 a33.954482486253305,33.954482486253305 0 0,0 -0.26952086917094425,0.5168418042939633 l -11.434647033895416 -6.0883054864937876" fill="#ffac0f" stroke="none" /><line stroke="#e1ed5e" stroke-width="0.3" x1="174.33088141563837" x2="178.70328620479359" y1="141.23008692659167" y2="143.65538615756765" /><path d="M 175.20536237346943 141.71514677278685 a86.0,86.0 0 0,1 -30.301960400862466,31.631185727798858" fill="none" id="id17" stroke="none" /><text fill="#e1ed5e" style="font-size:6.75px; font-family:Arial;" text-anchor="middle"><textPath startOffset="22.145653131862474" xlink:href="#id17">May</textPath></text><path d="M 117.423217284605 111.72311816256416 l 10.733155237058146 7.221745848991719 a33.93654646535225,33.93654646535225 0 0,0 -0.3293626888896453,0.48055000621320154 l -10.60760281135318 -7.404930590274965" fill="#ffab0f" stroke="none" /><path d="M 117.21940702142032 112.02048342749411 l 10.672753163716807 7.450410596056128 a34.0160008506243,34.0160008506243 0 0,0 -0.3383537612422587,0.47593693838963347 l -10.543284303944588 -7.632524761155265" fill="#ffac0f" stroke="none" /><path d="M 117.01052211995028 112.31430620078461 l 15.874580184120827 11.491971840588215 a40.597645593462346,40.597645593462346 0 0,0 -0.4135121143853856,0.5610086004648065 l -15.674966050151614 -11.762786750321899" fill="#fffe18" stroke="none" /><path d="M 116.79662413953412 112.60449989151573 l 15.422884381812967 11.57361996687587 a40.28248017741593,40.28248017741593 0 0,0 -0.41979719686151923,0.5495280063627894 l -15.221935207597143 -11.836668886479536" fill="#fffa17" stroke="none" /><path d="M 116.57777611688842 112.89097897827486 l 11.928064574993787 9.275335159768758 a36.10994926633654,36.10994926633654 0 0,0 -0.3847146589861713,0.48607440399266516 l -11.767083485366054 -9.478729507676105" fill="#ffc712" stroke="none" /><path d="M 116.1254893667686 113.45245675266167 l 22.63932795555998 18.886532576128882 a50.4828811860133,50.4828811860133 0 0,0 -0.5608538395486338,0.6606844127413702 l -22.31177955250423 -19.27238377131981" fill="#8fff24" stroke="none" /><path d="M 115.89218393027572 113.72728997021213 l 9.802910184703505 8.467520338788077 a33.95360755840447,33.95360755840447 0 0,0 -0.3847896636948766,0.43782000242045743 l -9.656109457050043 -8.634552619019827" fill="#ffab0f" stroke="none" /><path d="M 115.6541949942343 113.99807769240083 l 11.144113660009511 9.965135152795428 a35.94975544551448,35.94975544551448 0 0,0 -0.4153092059644744,0.4564975688195087 l -10.971406753203157 -10.154970297172609" fill="#ffc512" stroke="none" /><path d="M 115.41159269507618 114.26474011684316 l 12.066743537980653 11.168797672733957 a37.442272989640614,37.442272989640614 0 0,0 -0.4406494924306706,0.4679544907247935 l -11.873238211813723 -11.374293623403249" fill="#ffd814" stroke="none" /><path d="M 115.16444852881244 114.52719865689866 l 9.372890026522393 8.979016622058332 a33.979746027888325,33.979746027888325 0 0,0 -0.40713107591238745,0.4177523501762954 l -9.217372149459198 -9.138591664302364" fill="#ffac0f" stroke="none" /><path d="M 114.91283532996324 114.78537596483092 l 14.124047635079323 14.003330004606406 a40.88924264058086,40.88924264058086 0 0,0 -0.49847507122643203,0.4942146261328572 l -13.881580643722927 -14.243724640967926" fill="#fcff18" stroke="none" /><path d="M 114.39649973595853 115.28858382429668 l 20.33716534640955 21.597364835186614 a50.66557705744752,50.66557705744752 0 0,0 -0.638314443266605,0.5908143192062547 l -19.963421131828976 -21.943296900525247" fill="#8dff24" stroke="none" /><path d="M 114.13192950727249 115.5334660781643 l 9.004553501255462 9.897581663479654 a34.3807363976061,34.3807363976061 0 0,0 -0.4399669654096757,0.3934211734402707 l -8.833321509022408 -10.050698366803312" fill="#ffb110" stroke="none" /><path d="M 113.86319453409587 115.77377054828091 l 14.613598396221207 16.627592393642534 a43.13671355226783,43.13671355226783 0 0,0 -0.5604086015547803,0.48406760260860215 l -14.326010314903572 -16.876004128715852" fill="#e2ff1b" stroke="none" /><path d="M 113.59037401385872 116.0094264158162 l 13.47829216410443 15.877394278631435 a41.826809855090076,41.826809855090076 0 0,0 -0.5513683089532915,0.4599710534222841 l -13.203749520989243 -16.10642751596559" fill="#f1ff19" stroke="none" /><path d="M 113.31354834802062 116.24036423190432 l 8.551134729274283 10.430993974656488 a34.48805176656439,34.48805176656439 0 0,0 -0.46107114121005355,0.3714062738452361 l -8.370812817708977 -10.576248542295128" fill="#ffb210" stroke="none" /><path d="M 113.03279911837588 116.46651593811092 l 10.1757914964885 12.856780138931697 a37.39644864355804,37.39644864355804 0 0,0 -0.5067932090436159,0.39408546466363853 l -9.953588342809654 -13.02956665521613" fill="#ffd714" stroke="none" /><path d="M 112.7482090630111 116.68781488649013 l 18.32420540969481 23.98697309618647 a51.18528419965368,51.18528419965368 0 0,0 -0.7028154147963389,0.5274057897566149 l -17.9097370059877 -24.2979979132071" fill="#88ff25" stroke="none" /><path d="M 111.8722381534696 117.32195027204791 l 11.651146256028248 16.99937058626958 a41.60892547923565,41.60892547923565 0 0,0 -0.5926373361492646,0.3987528483251967 l -11.357612631781981 -17.196873108651896" fill="#f4ff19" stroke="none" /><path d="M 111.5731344415666 117.5232005979908 l 11.350154000052077 17.185579789573172 a41.595391439074035,41.595391439074035 0 0,0 -0.5992001686768417,0.3883943100052731 l -11.053468199118226 -17.37788794128234" fill="#f4ff19" stroke="none" /><path d="M 110.96478420261333 117.91015095944535 l 10.516730777600081 17.17828936220834 a41.14187805693106,41.14187805693106 0 0,0 -0.6055050876717034,0.3635884075726054 l -10.220292933370942 -17.35629177031687" fill="#f9ff18" stroke="none" /><line stroke="#e1ed5e" stroke-width="0.3" x1="143.1302829299769" x2="145.66735839644613" y1="173.24464959558577" y2="177.55315839532614" /><path d="M 143.63769802327073 174.10635135553383 a86.0,86.0 0 0,1 -40.68552437913181,11.842963189579606" fill="none" id="id18" stroke="none" /><text fill="#e1ed5e" style="font-size:6.75px; font-family:Arial;" text-anchor="middle"><textPath startOffset="21.407464694133747" xlink:href="#id18">June</textPath></text><path d="M 110.65571695917076 118.09573695890943 l 12.743824793163745 21.6418005650054 a46.11518668165385,46.11518668165385 0 0,0 -0.6855956489541032,0.39582883247888917 l -12.370436676349241 -21.857376294760464" fill="#bfff1e" stroke="none" /><path d="M 110.34350942703117 118.27599006163325 l 18.209674300229658 32.17474967121458 a57.97034966734514,57.97034966734514 0 0,0 -0.8702614117739986,0.48271933512618437 l -17.654668700299563 -32.482601921773906" fill="#42ff2d" stroke="none" /><path d="M 110.02825361518725 118.45085714620011 l 4.443703757268727 8.175914408589376 a30.305486526718717,30.305486526718717 0 0,0 -0.45921641694437165,0.24450687655533118 l -4.302698524537802 -8.250991752867275" fill="#ff7c0b" stroke="none" /><path d="M 109.71004243097381 118.62028667847754 l 0.19439975322488776 0.37278715937698287 a21.42043017285901,21.42043017285901 0 0,0 -0.32750081084238347,0.16722424755178517 l -0.18797172066892198 -0.3760693586016043" fill="#ff0000" stroke="none" /><path d="M 109.06512990194946 118.94263497670748 l 8.52951302774594 17.823401711972863 a40.75920648904821,40.75920648904821 0 0,0 -0.6337305205864753,0.2966178825643385 l -8.222293793287959 -17.967195826107734" fill="#feff18" stroke="none" /><path d="M 108.73861861582097 119.09545874513695 l 8.183485238309556 17.88239212965086 a40.66594464866179,40.66594464866179 0 0,0 -0.6372674925756922,0.28504164371384105 l -7.875304342878236 -18.02023752427455" fill="#ffff18" stroke="none" /><path d="M 108.07796709384702 119.3841803445677 l 22.280204102897358 53.46437902344322 a78.92104383753076,78.92104383753076 0 0,0 -1.2550157384636689,0.5104039751048128 l -21.359133903243247 -53.83897025512732" fill="#47fffd" stroke="none" /><path d="M 107.74402155503746 119.51999308798841 l 8.804377703045654 22.192783256871877 a44.87544126135432,44.87544126135432 0 0,0 -0.7184937183290324,0.27792880525269203 l -8.422111722223093 -22.34065195026261" fill="#cdff1d" stroke="none" /><path d="M 107.06938296918513 119.77432235084164 l 6.66744314476656 18.650025125986456 a40.806015128960716,40.806015128960716 0 0,0 -0.6616291722502209,0.23014897107161517 l -6.346308200471317 -18.761732529626663" fill="#fdff18" stroke="none" /><path d="M 106.72888874123015 119.89276391827305 l 4.04802148346532 11.967256229585335 a33.63335662423672,33.63335662423672 0 0,0 -0.5485076143040969,0.1803053475673268 l -3.8419911315134887 -12.034982498554681" fill="#ffa70f" stroke="none" /><path d="M 106.0420521117495 120.11202640906438 l 3.623893943922272 12.062764331688195 a33.59535194580308,33.59535194580308 0 0,0 -0.5537473669788495,0.16118778812694395 l -3.416286564561816 -12.123195814117658" fill="#ffa70f" stroke="none" /><path d="M 105.69591212413111 120.21278271476187 l 7.945513011837537 28.195822647120696 a50.29395145365616,50.29395145365616 0 0,0 -0.8330081779080543,0.22704008311167204 l -7.460323432994787 -28.32806322437651" fill="#91ff24" stroke="none" /><path d="M 104.9986988182912 120.39639698878246 l 4.704559195266698 19.196206951450005 a40.764292007169544,40.764292007169544 0 0,0 -0.6810894924225828,0.16073526570119046 l -4.374337549104236 -19.27413836079742" fill="#feff18" stroke="none" /><path d="M 104.29559338865022 120.5559693870025 l 4.027390749782958 19.272522669574485 a40.6888294802078,40.6888294802078 0 0,0 -0.6849354390897616,0.13700627055368772 l -3.6959588251622377 -19.338818336791032" fill="#ffff18" stroke="none" /><path d="M 103.2317021107853 120.74984581791261 l 4.865498573677988 31.23999111618586 a52.61661147735212,52.61661147735212 0 0,0 -0.8936678258079054,0.13133839525202395 l -4.328505642262398 -31.318910584736766" fill="#78ff26" stroke="none" /><path d="M 102.875027216393 120.80226474461374 l 0.2766835786895667 2.0019445456271425 a23.02097396482061,23.02097396482061 0 0,0 -0.3919289882904008,0.05074305422589605 l -0.24227676850839053 -2.006399196053433" fill="#ff1702" stroke="none" /><path d="M 101.80034050326958 120.92268563240118 l 1.6773805105256918 19.49370413202915 a40.565738068475255,40.565738068475255 0 0,0 -0.694313524363645,0.05374425793136861 l -1.3424979913868111 -19.519626156955574" fill="#fffe18" stroke="none" /><line stroke="#e1ed5e" stroke-width="0.3" x1="101.45913802915013" x2="101.54496967792366" y1="184.9874750549273" y2="189.98673829345242" /><path d="M 101.47630435890484 185.9873277026323 a86.0,86.0 0 0,1 -42.54439059252881,-10.42667462771756" fill="none" id="id19" stroke="none" /><text fill="#e1ed5e" style="font-size:6.75px; font-family:Arial;" text-anchor="middle"><textPath startOffset="22.145653131862474" xlink:href="#id19">July</textPath></text><path d="M 99.63950707515114 120.99690560180557 l -0.33517210606994596 19.52209484960014 a40.524971899018745,40.524971899018745 0 0,0 -0.6954600152411237,-0.017912583026098907 l 0.6702454353818135 -19.513464549223993" fill="#fffd18" stroke="none" /><path d="M 99.27912038922189 120.98762331915562 l -0.4327098486447536 12.597875115433556 a33.60530425008354,33.60530425008354 0 0,0 -0.5763697570500591,-0.024751797334160896 l 0.6489053662956514 -12.588590749673568" fill="#ffa70f" stroke="none" /><path d="M 98.91894614982273 120.97215588758144 l -1.0155114505418574 19.700650844447306 a40.726806817146155,40.726806817146155 0 0,0 -0.6978938787028967,-0.04198356271938455 l 1.3535496813772006 -19.68031530390323" fill="#feff18" stroke="none" /><path d="M 98.55909050195518 120.95050786540614 l -1.7798361205446238 25.87842657238435 a46.939560105720446,46.939560105720446 0 0,0 -0.8034063463622535,-0.06218873230528754 l 2.2238114616821134 -25.84406007308401" fill="#b6ff1f" stroke="none" /><path d="M 98.19965949673042 120.92268563240118 l -1.6696593743115333 19.403972825401052 a40.47567518303612,40.47567518303612 0 0,0 -0.6917494045465697,-0.06550938781970476 l 2.0025083422431185 -19.372451682076164" fill="#fffd17" stroke="none" /><path d="M 97.84075906011543 120.88869738790638 l -1.2789664469058872 12.372840188983774 a33.43876720235744,33.43876720235744 0 0,0 -0.5704718944444453,-0.06392256566300406 l 1.4911742429511319 -12.3490618628138" fill="#ffa50f" stroke="none" /><path d="M 97.48249496171623 120.84855314841334 l -1.3184837046964502 10.918936476655581 a31.998253182246255,31.998253182246255 0 0,0 -0.5447659606384053,-0.07053086019913074 l 1.5057274872256496 -10.894694020256054" fill="#ff920d" stroke="none" /><path d="M 96.76829788921471 120.74984581791261 l -1.9828476121969265 12.731304069206008 a33.88478901479479,33.88478901479479 0 0,0 -0.5739800836601393,-0.09444820434123612 l 2.2011051989101293 -12.695389866369103" fill="#ffab0f" stroke="none" /><path d="M 96.41257539226777 120.69131181640829 l -2.2036787769903134 12.710233580833846 a33.89985417869186,33.89985417869186 0 0,0 -0.572528610231717,-0.1043337847156795 l 2.4215421207730876 -12.670531622186799" fill="#ffab0f" stroke="none" /><path d="M 95.35216902796893 120.47920084513623 l -4.355148673170851 19.189588632849734 a40.677592125649355,40.677592125649355 0 0,0 -0.6796409114368517,-0.16039340453283893 l 4.683921738347591 -19.111999084670668" fill="#ffff18" stroke="none" /><path d="M 95.00130118170881 120.39639698878247 l -3.945561560193073 16.09923759177161 a37.5756721450922,37.5756721450922 0 0,0 -0.6251781405235141,-0.15891783858097758 l 4.221344993941965 -16.02913452135537" fill="#ffd914" stroke="none" /><path d="M 94.30408787586889 120.21278271476187 l -3.4435623944099047 12.219988111833851 a33.6959139654282,33.6959139654282 0 0,0 -0.5554049163230361,-0.16167027658365743 l 3.6528273231145474 -12.159074140947679" fill="#ffa80f" stroke="none" /><path d="M 93.61358852112213 120.00534299687104 l -5.9118077484625635 18.518653571055797 a40.43939301880487,40.43939301880487 0 0,0 -0.6595034577270116,-0.21679188595802734 l 6.228833943837318 -18.414440763695747" fill="#fffc17" stroke="none" /><path d="M 92.93061703081489 119.77432235084164 l -6.676923436485016 18.67654318919483 a40.83417686909499,40.83417686909499 0 0,0 -0.6580346874179139,-0.2416394519500103 l 6.996547275557049 -18.559172888236102" fill="#fdff18" stroke="none" /><path d="M 92.59220618246901 119.65005319985036 l -6.986796413584483 18.53330756838178 a40.806534617370964,40.806534617370964 0 0,0 -0.6533470861846742,-0.2527286884301994 l 7.303915762262686 -18.41063899181354" fill="#fdff18" stroke="none" /><path d="M 92.25597844496254 119.51999308798841 l -7.061995538854584 17.80084199483864 a40.15050277971868,40.15050277971868 0 0,0 -0.6384800611546598,-0.2596642824873516 l 7.3665300611996845 -17.676990455771993" fill="#fff917" stroke="none" /><path d="M 91.92203290615298 119.3841803445677 l -7.538393571084575 18.089400314781777 a40.59729015402375,40.59729015402375 0 0,0 -0.6409827361049086,-0.2735974148536688 l 7.847811382359915 -17.957328250268706" fill="#fffe18" stroke="none" /><path d="M 90.93487009805054 118.94263497670748 l -13.743633770163145 28.718908672865687 a52.8380775890877,52.8380775890877 0 0,0 -0.8148128512343619,-0.39856579633140216 l 14.234606870659576 -28.478749126437062" fill="#76ff27" stroke="none" /><path d="M 90.6110303473126 118.78422872680471 l -8.646943635026965 17.299679627960405 a40.340334781419934,40.340334781419934 0 0,0 -0.6167706364416526,-0.3149274816318815 l 8.9426414931822 -17.148694194655686" fill="#fffb17" stroke="none" /><path d="M 90.28995756902619 118.62028667847754 l -5.625747062890157 10.788111775646703 a33.16685603183765,33.16685603183765 0 0,0 -0.5025745016441749,-0.2675926145041432 l 5.810110380320893 -10.689948693419987" fill="#ffa10e" stroke="none" /><line stroke="#e1ed5e" stroke-width="0.3" x1="58.13341422392154" x2="55.67067388415222" y1="173.97424548756322" y2="178.32567169271397" /><path d="M 57.64086615596768 174.84453072859336 a86.0,86.0 0 0,1 -31.369924170532247,-30.572349798747897" fill="none" id="id20" stroke="none" /><text fill="#e1ed5e" style="font-size:6.75px; font-family:Arial;" text-anchor="middle"><textPath startOffset="22.145653131862474" xlink:href="#id20">August</textPath></text><path d="M 89.65649057296885 118.27599006163327 l -9.496686468701816 16.779735035274 a40.28073032171826,40.28073032171826 0 0,0 -0.598854638405925,-0.3457488866891194 l 9.78333357496814 -16.61423925130871" fill="#fffa17" stroke="none" /><path d="M 89.34428304082925 118.09573695890944 l -6.170455486391142 10.478782406311517 a33.16056748792417,33.16056748792417 0 0,0 -0.4880402468801963,-0.2930541457163108 l 6.349428489828766 -10.371314260059286" fill="#ffa10e" stroke="none" /><path d="M 89.03521579738668 117.91015095944536 l -8.50493016543067 13.892164254915219 a37.288832518151715,37.288832518151715 0 0,0 -0.5430601228382583,-0.3389096812040958 l 8.742154417058641 -13.744118776869575" fill="#ffd614" stroke="none" /><path d="M 88.4268655584334 117.5232005979908 l -10.765487680084972 16.300320462516932 a40.53448673937479,40.53448673937479 0 0,0 -0.5773340687537953,-0.38845612705840366 l 11.043718036935774 -16.113114661401408" fill="#fffe18" stroke="none" /><path d="M 87.2517909369889 116.68781488649013 l -7.816215286924255 10.231676714465301 a33.87557493088677,33.87557493088677 0 0,0 -0.4590786545283113,-0.35698233847363164 l 7.990703886087794 -10.095993324370877" fill="#ffaa0f" stroke="none" /><path d="M 86.68645165197938 116.24036423190432 l -12.209337200439398 14.893406174076402 a40.25828295409667,40.25828295409667 0 0,0 -0.5306917135365112,-0.44272190213700324 l 12.463203248137802 -14.681622088027527" fill="#fffa17" stroke="none" /><path d="M 86.40962598614128 116.0094264158162 l -11.58887280948456 13.651663029766626 a38.907257648023815,38.907257648023815 0 0,0 -0.5054618225016286,-0.43660588354588664 l 11.821514111749051 -13.450713013756017" fill="#ffea16" stroke="none" /><path d="M 85.86807049272751 115.53346607816431 l -13.185051775471173 14.492681582350352 a40.592942856274874,40.592942856274874 0 0,0 -0.5114135321201764,-0.47335673036972414 l 13.431895078905317 -14.26420710584825" fill="#fffe18" stroke="none" /><path d="M 85.60350026404147 115.28858382429668 l -11.325849595894933 12.027659785643554 a37.5208797885591,37.5208797885591 0 0,0 -0.46512939826199795,-0.4455834418823372 l 11.530651480022245 -11.831464213455634" fill="#ffd914" stroke="none" /><path d="M 85.08716467003676 114.78537596483092 l -21.48824504451924 21.304585934056238 a51.25937965185163,51.25937965185163 0 0,0 -0.6141684040584522,-0.630190887847279 l 21.8508002497285 -20.93257235414122" fill="#87ff25" stroke="none" /><path d="M 84.83555147118756 114.52719865689866 l -45.493345586437314 43.581595970695986 a84.0,84.0 0 0,0 -0.9885766650549881,-1.0498341602220393 l 46.234778085228555 -42.79422035052945" fill="#4dd2ff" stroke="none" /><path d="M 83.64595745247003 113.17365903436017 l -9.810892463453786 7.902960491920371 a33.59803141234013,33.59803141234013 0 0,0 -0.3579527376809424,-0.45226159066650623 l 9.94511163177629 -7.733378957339184" fill="#ffa70f" stroke="none" /><path d="M 83.4222238831116 112.89097897827486 l -21.740996610981764 16.905930463941814 a48.540541361606465,48.540541361606465 0 0,0 -0.505857214054268,-0.6621833314317516 l 22.028005802390325 -16.530226219269192" fill="#a4ff21" stroke="none" /><path d="M 83.20337586046588 112.60449989151573 l -20.61278821890223 15.468220560908273 a46.77116383631558,46.77116383631558 0 0,0 -0.47639321363341375,-0.6463188882595392 l 20.875283452119476 -15.112095363379854" fill="#b8ff1f" stroke="none" /><path d="M 82.78059297857968 112.02048342749411 l -10.309224958769734 7.196639675979893 a33.572658504724004,33.572658504724004 0 0,0 -0.3258310650312865,-0.475397261459998 l 10.431245760616347 -7.018607679449844" fill="#ffa70f" stroke="none" /><path d="M 82.18462484594161 111.11811171558189 l -10.404364960761434 6.493093239020566 a33.264219096515475,33.264219096515475 0 0,0 -0.2981615081589766,-0.4870244158704395 l 10.514294433375815 -6.31353170702557" fill="#ffa30f" stroke="none" /><path d="M 81.99639281039703 110.81064883170644 l -24.646968636775274 14.799796501455218 a49.74903545280554,49.74903545280554 0 0,0 -0.43335268952401207,-0.7359276067588746 l 24.897395036429057 -14.374517726402784" fill="#97ff23" stroke="none" /><line stroke="#e1ed5e" stroke-width="0.3" x1="26.387840678322732" x2="22.057713659400548" y1="142.50000000000003" y2="145.00000000000006" /><path d="M 25.521815274538298 143.00000000000003 a86.0,86.0 0 0,1 -11.493303480769221,-40.785679425670985" fill="none" id="id21" stroke="none" /><text fill="#e1ed5e" style="font-size:6.75px; font-family:Arial;" text-anchor="middle"><textPath startOffset="21.40746469413373" xlink:href="#id21">September</textPath></text><path d="M 81.63589988554817 110.18625677009913 l -10.689774564081585 5.929437753310783 a33.22413646444087,33.22413646444087 0 0,0 -0.27236617130325697,-0.5011230779567795 l 10.789986085000173 -5.745059841879416" fill="#ffa20f" stroke="none" /><path d="M 81.4637452351635 109.86951160357371 l -16.86464609265683 8.979474139370943 a40.10620955737157,40.10620955737157 0 0,0 -0.3183515008196959,-0.6104809790405674 l 17.016305662451476 -8.688646917225872" fill="#fff817" stroke="none" /><path d="M 81.29705330413844 109.54985784667822 l -17.051809110017732 8.706775230525283 a40.14607345748397,40.14607345748397 0 0,0 -0.3081308382897737,-0.6164680852451662 l 17.198759861519243 -8.412775289116363" fill="#fff917" stroke="none" /><path d="M 81.1358732173502 109.22738970284198 l -11.150825143123273 5.454427352475302 a33.41336695324604,33.41336695324604 0 0,0 -0.24761014092009065,-0.5174099617669807 l 11.242814542003275 -5.262204888643217" fill="#ffa50f" stroke="none" /><path d="M 80.83023694016515 108.57439118712176 l -25.601753137397676 11.451338537204693 a49.04608560925965,49.04608560925965 0 0,0 -0.33717109436534604,-0.7715134478933016 l 25.794558113779992 -11.010163019535542" fill="#9fff22" stroke="none" /><path d="M 80.68587082218212 108.24405325689762 l -14.764660522061824 6.30215561588387 a37.05342224382538,37.05342224382538 0 0,0 -0.24468343031883266,-0.587151158890018 l 14.870669796917142 -6.047771947552571" fill="#ffd313" stroke="none" /><path d="M 80.16572619554312 106.89939002012753 l -15.569576544505964 5.415906934018326 a37.484652307318406,37.484652307318406 0 0,0 -0.20619160994220354,-0.6095688569460709 l 15.660253576020533 -5.147836402598094" fill="#ffd814" stroke="none" /><path d="M 80.05021161711548 106.5578916946017 l -3.885498323468219 1.277240474727121 a25.0900416198317,25.0900416198317 0 0,0 -0.13098827829289303,-0.41031891610580956 l 3.906851317538367 -1.2103525249299198" fill="#ff3405" stroke="none" /><path d="M 79.94057633289273 106.21446072829308 l -36.461264296575074 11.295792881952538 a59.17091472491418,59.17091472491418 0 0,0 -0.2922583344771198,-0.972832943602515 l 36.64979895105583 -10.6682223347593" fill="#36ff2e" stroke="none" /><path d="M 79.83685265289637 105.86919833188381 l -9.61618815180187 2.799132223161761 a31.01529908557888,31.01529908557888 0 0,0 -0.1444153673021884,-0.5124791914511684 l 9.662822011178633 -2.633645107807597" fill="#ff850c" stroke="none" /><path d="M 79.64726062577567 105.17358676015961 l -38.20858727408858 9.712473471555038 a60.42370203846037,60.42370203846037 0 0,0 -0.2469098728077505,-1.007476539256314 l 38.36968467341263 -9.055141107690623" fill="#30ff36" stroke="none" /><path d="M 79.34024301695615 103.76489593502545 l -28.75396606148044 5.239930461407491 a50.22751162013549,50.22751162013549 0 0,0 -0.14729859381128407,-0.8495791460254293 l 28.839679472783956 -4.745558282461469" fill="#92ff23" stroke="none" /><path d="M 79.22317932658666 103.0534771498775 l -15.7704435761121 2.317712120637922 a36.93984567244888,36.93984567244888 0 0,0 -0.08681828293045499,-0.6281738468055221 l 15.807906375597769 -2.046649965632314" fill="#ffd113" stroke="none" /><path d="M 79.17382384314188 102.69636545807758 l -17.77310621998272 2.301084430159499 a38.92144788407206,38.92144788407206 0 0,0 -0.08010017987156731,-0.6633443952859892 l 17.809988486113948 -1.9956463579501105" fill="#ffea16" stroke="none" /><path d="M 79.13060592940153 102.33845913500099 l -16.338246924219355 1.8307346461806884 a37.44049579244767,37.44049579244767 0 0,0 -0.06608712396791826,-0.6393329749836509 l 16.36726644066894 -1.5499971489141062" fill="#ffd814" stroke="none" /><path d="M 79.03789590574601 101.26102812881392 l -28.38602531868252 1.707632794452862 a49.43734240665917,49.43734240665917 0 0,0 -0.04368945221708431,-0.847563701280476 l 28.411156360356177 -1.2200972997956552" fill="#9aff22" stroke="none" /><line stroke="#e1ed5e" stroke-width="0.3" x1="15.003131293944662" x2="10.003315487706104" y1="100.72959589197737" y2="100.7725132973878" /><path d="M 14.003168132696942 100.73817937305945 a86.0,86.0 0 0,1 10.791469493833604,-42.45332614584628" fill="none" id="id22" stroke="none" /><text fill="#e1ed5e" style="font-size:6.75px; font-family:Arial;" text-anchor="middle"><textPath startOffset="22.145653131862435" xlink:href="#id22">October</textPath></text><path d="M 79.00077361379809 99.81974689727619 l -34.28532744032421 -0.29429830105937155 a55.28659051553908,55.28659051553908 0 0,0 0.01629261176580741,-0.9489629550896286 l 34.27522339695973 0.8828081721180525" fill="#5dff2a" stroke="none" /><path d="M 79.17382384314186 97.30363454192245 l -16.720277979492376 -2.1647747360723115 a37.859832305495644,37.859832305495644 0 0,0 0.08898049174173792,-0.6438185126608242 l 16.68065297119543 2.4514815569332025" fill="#ffdd14" stroke="none" /><path d="M 79.22317932658666 96.9465228501225 l -12.028976569075606 -1.767845315096028 a33.158188777835164,33.158188777835164 0 0,0 0.08759842079961608,-0.5624447004006122 l 11.996856656137723 1.9740781974280903" fill="#ffa10e" stroke="none" /><path d="M 79.2786578344484 96.59031103205396 l -11.962162061475517 -1.9683692150792662 a33.12302761491023,33.12302761491023 0 0,0 0.09713750956542899,-0.5602633418847485 l 11.926609734417854 2.1734255898846073" fill="#ffa10e" stroke="none" /><path d="M 79.48165901384962 95.52812308129327 l -18.980651976203518 -4.136744755907997 a40.42621441808184,40.42621441808184 0 0,0 0.15359870566209444,-0.6767842380103529 l 18.906842408983763 4.461963327857358" fill="#fffc17" stroke="none" /><path d="M 79.73907114497095 94.47779374421319 l -17.038721981000577 -4.643979443752838 a38.660254579700464,38.660254579700464 0 0,0 0.18001228521826937,-0.6388000951927766 l 16.956491203707728 4.935787462848628" fill="#ffe715" stroke="none" /><path d="M 79.83685265289637 94.1308016681162 l -9.488525000478889 -2.7619713403943402 a30.882337394051703,30.882337394051703 0 0,0 0.15253474673336,-0.507738562637624 l 9.4397139337419 2.9244475066226876" fill="#ff830c" stroke="none" /><path d="M 80.05021161711548 93.44210830539832 l -23.400626706011646 -7.692250793772062 a45.6324999240514,45.6324999240514 0 0,0 0.25101042815837543,-0.7420677292200715 l 23.265130856280905 8.092820197466295" fill="#c5ff1e" stroke="none" /><path d="M 80.68587082218212 91.75594674310238 l -13.971765222057341 -5.963715760780892 a36.19131755627791,36.19131755627791 0 0,0 0.24880000096622173,-0.5693030920773894 l 13.867331339074141 6.202680922634148" fill="#ffc812" stroke="none" /><path d="M 81.29705330413844 90.45014215332179 l -14.617704433252815 -7.463904038886626 a37.41301758969529,37.41301758969529 0 0,0 0.2969737213095642,-0.5694862680640014 l 14.48742264296831 7.713736550055113" fill="#ffd714" stroke="none" /><line stroke="#e1ed5e" stroke-width="0.3" x1="26.387840678322718" x2="22.05771365940052" y1="57.49999999999999" y2="54.99999999999999" /><path d="M 25.521815274538284 56.99999999999999 a86.0,86.0 0 0,1 29.574782752854787,-30.34633250058573" fill="none" id="id23" stroke="none" /><text fill="#e1ed5e" style="font-size:6.75px; font-family:Arial;" text-anchor="middle"><textPath startOffset="21.40746469413373" xlink:href="#id23">November</textPath></text><path d="M 81.99639281039701 89.18935116829357 l -24.066822106398874 -14.451435178927875 a49.072333444724606,49.072333444724606 0 0,0 0.43985643872496233,-0.7184724361625269 l 23.81519770321852 14.862444731214946" fill="#9eff22" stroke="none" /><path d="M 82.18462484594161 88.88188828441811 l -16.716588064172626 -10.432387305551373 a40.70479691344897,40.70479691344897 0 0,0 0.3750313366054028,-0.589611552192999 l 16.535039035941335 10.717812532423043" fill="#feff18" stroke="none" /><path d="M 82.37810715431573 88.57770195909679 l -10.492444188301976 -6.801075556743018 a33.503839961114316,33.503839961114316 0 0,0 0.3169711525040232,-0.47993472443862084 l 10.374148596877223 6.9801901595207" fill="#ffa60f" stroke="none" /><path d="M 82.78059297857968 87.97951657250589 l -9.817099912405675 -6.853098173260604 a32.97248534192059,32.97248534192059 0 0,0 0.32797401675566734,-0.46133652787822843 l 9.698010797120036 7.020611927848353" fill="#ff9f0e" stroke="none" /><path d="M 82.98947788004972 87.6856937992154 l -15.826454120862179 -11.457132282165109 a40.5382325242276,40.5382325242276 0 0,0 0.4129069555511351,-0.560187586282029 l 15.627445145727226 11.727126177716" fill="#fffe18" stroke="none" /><path d="M 83.42222388311158 87.10902102172516 l -13.218758181875785 -10.278986315170686 a37.7449433423459,37.7449433423459 0 0,0 0.40213385234357485,-0.5080829857595931 l 13.040357898890647 10.504389244844962" fill="#ffdb14" stroke="none" /><path d="M 83.64595745247003 86.82634096563983 l -12.587933364390562 -10.1399480653041 a37.16399125072151,37.16399125072151 0 0,0 0.40447373381619667,-0.4933921887465872 l 12.412012811335735 10.35454253574918" fill="#ffd413" stroke="none" /><line stroke="#e1ed5e" stroke-width="0.3" x1="56.869717070023135" x2="54.33264160355391" y1="26.7553504044142" y2="22.446841604673864" /><path d="M 56.362301976729285 25.89364864446614 a86.0,86.0 0 0,1 42.16139366436587,-11.88097634709845" fill="none" id="id24" stroke="none" /><text fill="#e1ed5e" style="font-size:6.75px; font-family:Arial;" text-anchor="middle"><textPath startOffset="22.145653131862474" xlink:href="#id24">December</textPath></text></svg>